<?xml version="1.0" encoding="UTF-8"?>
<svg id="Layer_2" data-name="Layer 2" xmlns="http://www.w3.org/2000/svg" viewBox="0 0 714.31 770.75">
  <defs>
    <style>
      .cls-1 {
        fill: #0c3d5c;
        stroke-width: 0px;
      }
    </style>
  </defs>
  <g id="Layer_1-2" data-name="Layer 1">
    <path class="cls-1" d="M356.65,770.72c-113.86,0-227.73,0-341.59,0-2.5,0-5,.07-7.49-.05-4.66-.23-7.48-2.9-7.51-7.45-.09-12.98-.09-25.97.03-38.95.04-4.92,2.83-7.45,7.94-7.51,8.16-.1,16.32-.17,24.47-.02,3.81.07,5.29-1.43,5.55-5.22,1.84-27.35,3.88-54.69,5.76-82.04,1.8-26.33,3.36-52.67,5.24-79,2.11-29.49,4.51-58.96,6.7-88.45,1.48-19.89,2.75-39.79,4.24-59.67,1.86-24.84,3.91-49.67,5.75-74.51,1.19-16.07,2.08-32.16,3.24-48.23,1.17-16.23,2.81-32.43,3.68-48.67.81-15.07,2.15-30.1,3.22-45.14.42-5.88,2.69-8.38,8.71-8.39,28.47-.07,56.93-.08,85.4-.04,5.62,0,7.9,2.13,9.2,7.71,1.44,6.2.92,12.56,1.43,18.83,1.52,18.88,2.17,37.83,3.37,56.74,1.81,28.52,3.85,57.03,5.69,85.55.88,13.77,1.5,27.56,2.25,41.33.18,3.27-.55,7.62,2.52,9.07,3.14,1.49,5.38-2.55,7.66-4.46,40.55-33.9,81.01-67.89,121.47-101.89,5.98-5.03,11.79-10.26,17.8-15.25,2.18-1.81,4.27-4.61,7.76-3.02,3.79,1.72,3.46,5.27,3.45,8.6-.05,46.44-.1,92.88-.14,139.32,0,3.33.11,6.66.2,9.98.04,1.49.07,3.26,1.65,3.8,1.3.45,2.45-.74,3.47-1.59,10.23-8.49,20.47-16.98,30.67-25.5,31.51-26.3,63.06-52.55,94.49-78.95,20.88-17.53,41.57-35.28,62.38-52.91,1.76-1.49,3.51-3.18,5.93-3.49,3.41-.43,6.2,2.8,6.25,7.2.37,38.28.6,76.56,1.1,114.84,1.28,99.03.78,198.07.97,297.11.01,7.47.92,8.38,8.25,8.38,33.29.02,66.59.02,99.88.03,8.06,0,9.64,1.52,9.77,9.43.02,1.17.11,2.34.03,3.49-.26,3.6,1.26,5.11,4.96,5.03,7.99-.17,15.98-.09,23.97-.04,5.52.03,7.82,2.31,7.85,7.88.05,11.99.03,23.97.01,35.96,0,7.71-2.4,10.16-10.05,10.16-54.93.02-109.87.02-164.8.03-60.93,0-121.86,0-182.78,0v-.03ZM225.92,695.82c27.62,0,55.24,0,82.86,0,5.62,0,6.65-.87,6.65-6.65.02-23.45-.03-46.91-.16-70.36-.04-6.42-.82-7.02-7.22-7.02-54.4-.03-108.8-.05-163.2-.1-8.23,0-8.17-.07-8.19,8.29-.05,22.62-.04,45.23-.32,67.85-.08,6.85.54,7.99,7.22,7.99,27.45,0,54.91,0,82.36,0ZM315.49,526.48s-.08,0-.11,0c0-10.47.03-20.95-.01-31.42-.03-6.54-1.1-7.63-7.38-7.64-18.95,0-37.91-.01-56.86.04-5.98.02-7.25,1.2-7.26,6.88-.06,21.12.03,42.24-.09,63.37-.03,4.68,1.72,6.43,6.5,6.38,19.46-.2,38.92-.09,58.38-.1,5.74,0,6.83-1.13,6.85-7.08.02-10.14,0-20.29,0-30.43ZM136.75,526c-.06,0-.12,0-.18,0,0,10.81.14,21.62-.07,32.42-.08,4.36,1.51,5.7,5.84,5.66,19.79-.2,39.59-.1,59.38-.1,5.93,0,6.78-.86,6.77-6.9-.04-19.61-.09-39.22-.13-58.83q-.02-9.34-9.18-10.27c-1.31-.13-2.6-.6-3.91-.6-17.46-.01-34.91.09-52.37.02-4.39-.02-6.31,1.59-6.23,6.16.19,10.81.06,21.62.06,32.43Z"/>
    <path class="cls-1" d="M127.31,150.86c-7.65,0-15.31.04-22.96-.01-5.12-.04-7.26-2.15-7.44-7.15-.05-1.33-.15-2.68,0-3.99,1.43-11.94-2.44-23.01-4.88-34.45-4.26-19.96,8.52-40.88,27.79-47.77,1.55-.55,3.14-1.46,4.7-1.44,8,.1,9.54-5.01,11.72-11.59,6.86-20.72,21.62-33.11,43.26-36.97,16.61-2.97,31.55.52,44.55,11.56,2.99,2.54,6.07,2.25,8.9-.47,10.1-9.7,22.15-15.81,35.95-17.49,19.77-2.41,39.19-1.87,55.08,12.82,7.44,6.87,11.56,15.66,12.61,25.57,2.77,26.05-11.98,46.76-31.03,59.27-9.95,6.53-20.83,10.64-32.94,11.3-7.05.39-13.98-.2-20.77-1.72-3.7-.83-5.36.18-6.91,3.3-6.29,12.68-17.05,19.73-30.53,22.29-11.71,2.22-23.22.52-33.56-5.79-5.61-3.42-10.73-3.21-16.36-.22-5.18,2.75-7.96,6.19-7.64,12.54.47,9.45-.53,10.08-10.08,10.24-3.33.06-6.66.06-9.98.08-3.16.01-6.32,0-9.48,0v.08Z"/>
    <path class="cls-1" d="M225.92,695.81c-27.45,0-54.91,0-82.36,0-6.68,0-7.31-1.14-7.22-7.99.28-22.61.27-45.23.32-67.85.02-8.37-.04-8.3,8.19-8.29,54.4.05,108.8.07,163.2.1,6.41,0,7.19.6,7.22,7.02.13,23.45.18,46.9.16,70.36,0,5.78-1.03,6.65-6.65,6.65-27.62,0-55.24,0-82.86,0Z"/>
    <path class="cls-1" d="M315.49,526.48c0,10.14.01,20.29,0,30.43-.01,5.95-1.1,7.07-6.85,7.08-19.46.02-38.92-.1-58.38.1-4.78.05-6.52-1.7-6.5-6.38.12-21.12.04-42.24.09-63.37.02-5.68,1.28-6.86,7.26-6.88,18.95-.05,37.91-.05,56.86-.04,6.28,0,7.35,1.09,7.38,7.64.05,10.47.01,20.95.01,31.42.04,0,.08,0,.11,0Z"/>
    <path class="cls-1" d="M136.75,526c0-10.81.13-21.62-.06-32.43-.08-4.57,1.84-6.18,6.23-6.16,17.46.08,34.91-.03,52.37-.02,1.3,0,2.6.46,3.91.6q9.17.94,9.18,10.27c.04,19.61.09,39.22.13,58.83.01,6.04-.85,6.9-6.77,6.9-19.79,0-39.59-.1-59.38.1-4.34.04-5.92-1.3-5.84-5.66.2-10.8.07-21.62.07-32.42.06,0,.12,0,.18,0Z"/>
  </g>
</svg>