<?xml version="1.0" encoding="UTF-8"?>
<svg id="Layer_2" data-name="Layer 2" xmlns="http://www.w3.org/2000/svg" viewBox="0 0 532.92 489.35">
  <defs>
    <style>
      .cls-1 {
        fill: #da6b27;
      }

      .cls-1, .cls-2 {
        stroke-width: 0px;
      }

      .cls-2 {
        fill: #0e3a5a;
      }
    </style>
  </defs>
  <g id="Layer_1-2" data-name="Layer 1">
    <path class="cls-2" d="M156.3,173.51c4.29-3.68,8.18-6.88,11.93-10.24,12.14-10.89,24.61-21.39,37.29-31.63.78-.63,1.55-1.64,2.66-1.08,1.15.59.71,1.88.62,2.83-.6,7.01-.86,14.04-.56,21.06,1.07,24.95,9.34,47.17,25.44,66.39,12.88,15.38,28.68,26.58,47.54,33.4,16.02,5.79,32.49,7.46,49.41,5.5,7.26-.84,14.32-2.38,21.29-4.51,1.77-.54,3.11-1.03,2.4-3.4-.36-1.2-.06-2.59-.06-4.17-11.53,4.23-23.1,6.4-34.95,6.11-31.71-.78-58.4-12.62-79.2-36.94-12.22-14.28-19.84-30.87-22.93-49.24-5.29-31.5,2.26-59.95,22.33-84.88,15.76-19.58,36.2-31.9,60.93-35.81,37.21-5.89,69.45,4.52,95.23,32.48,12.39,13.44,20.09,29.61,24.04,47.41,2.56,11.53,2.65,23.28,1.54,35.06-1.41,15.04-6.1,28.9-14.35,41.53-.95,1.45-.17,2.22.63,3.18,4.64,5.56,9.62,10.8,14.73,15.92,18.55,18.61,36.68,37.68,55.88,55.58,13.08,12.19,7.5,33.44-8.44,39.78-10.34,4.11-21.54,1.8-29.03-6.52-10.85-12.04-21.48-24.28-32.19-36.45-10.37-11.79-20.63-23.67-31.84-34.69-1-.98-1.89-2.27-3.66-1.21-1.69,1.01-3.45,1.8-3.36,4.26.32,9.19.55,18.39.87,27.58.3,8.57.68,17.14.99,25.72.12,3.3,1.12,4.47,4.45,4.57,2.26.07,4.53-.06,6.79-.17,2.63-.13,3.76,1.05,3.69,3.69-.09,3.2-.11,6.42.05,9.62.13,2.47-.81,3.15-3.25,3.15-27.82-.08-55.64,0-83.46-.06-40.63-.08-81.27-.26-121.9-.37-34.64-.1-69.28-.18-103.91-.27-3.91-.01-4.02-.14-3.96-4,.05-2.89.22-5.79.04-8.67-.15-2.4.9-3.15,3.06-3.12,2.26.03,4.53-.01,6.79-.09,3.88-.13,4.4-.56,4.73-4.47.51-6.07.88-12.15,1.33-18.23.77-10.39,1.57-20.78,2.33-31.17.7-9.57,1.31-19.14,2.03-28.7.73-9.77,1.56-19.53,2.32-29.3.49-6.38.9-12.77,1.39-19.15.77-9.97,1.6-19.94,2.35-29.91.69-9.15,1.34-18.31,1.99-27.47.46-6.48.89-12.96,1.35-19.45.16-2.34.94-3.59,3.79-3.55,14.07.16,28.14.07,42.21.08,3.53,0,3.96.58,4.21,4.1.94,13.07,2,26.14,2.99,39.21.67,8.84,1.26,17.68,1.97,26.52.36,4.5.91,8.99,1.45,14.2ZM406.3,149.09c.35-47.91-40.47-88.65-87.82-88.18-47.56.47-89.13,39.05-86.82,93.38,1.94,45.36,40.02,83.81,88.42,83.4,49.52-.42,86.78-42.27,86.21-88.6ZM169.73,269.01s0-.02,0-.03c-12.62,0-25.24.05-37.85-.05-2.4-.02-3.21.62-3.17,3.12.15,8.38.19,16.76-.02,25.13-.07,2.85.92,3.48,3.52,3.48,25.22.03,50.45.14,75.67.3,1.9.01,2.76-.35,2.92-2.45.65-8.57.22-17.14.24-25.71,0-2.93-1.13-3.89-4.08-3.85-12.41.15-24.82.06-37.24.06ZM396.77,218.59c-2.12,1.94-4.21,4.31-6.73,6.03-3.08,2.09-2.23,3.57-.2,5.81,19.38,21.34,38.59,42.83,57.38,64.7,2.42,2.82,4.94,5.59,8.19,7.5,3.69,2.18,9.94,1.41,12.4-1.44,2.68-3.11,2.36-8.42-1.1-12.01-7.24-7.51-14.51-14.99-22-22.25-16.4-15.9-31.96-32.63-47.94-48.33ZM160.48,230.49h-.01c0-4.45-.11-8.9.04-13.34.08-2.5-.68-3.52-3.33-3.49-8.68.11-17.37.08-26.06-.03-2-.03-2.41.72-2.39,2.52.07,9.1.08,18.2.01,27.3-.02,2.59.93,3.78,3.62,3.77,8.58-.04,17.16,0,25.75.1,1.96.02,2.44-.76,2.4-2.57-.1-4.75-.03-9.51-.03-14.27ZM178.83,229.61s.09,0,.13,0c0,4.65.05,9.29-.02,13.94-.04,2.44.92,3.64,3.45,3.63,8.67-.02,17.35.01,26.02.08,1.56.01,2.34-.58,2.34-2.13,0-9.57-.04-19.14,0-28.71,0-1.97-.73-2.78-2.74-2.77-8.98.05-17.97.05-26.95-.01-1.75-.01-2.32.58-2.27,2.35.12,4.54.04,9.08.04,13.62Z"/>
    <path class="cls-2" d="M236.15,23.61c.64,13.81-12.4,28.42-26.38,31.08-5.77,1.1-11.58,1.97-17.41.09-1.7-.55-2.82.49-3.92,1.77-5.83,6.77-12.9,11-22.21,10.6-3.79-.16-7.13-1.61-10.49-3.12-3.07-1.37-5.92-3.79-9.65-1.26-3.9,2.64-5.13,6.46-5.53,10.79-.05.51-.07,1.04,0,1.55.27,1.94-.69,2.56-2.48,2.56-8.38-.03-16.76-.03-25.14,0-1.21,0-2.24-.34-2.12-1.62.72-7.76-2.23-14.99-3.21-22.49-1.7-12.98,10.57-25.32,22.1-24.41,1.64.13,1.86-1.61,2.19-2.92,1.89-7.61,6.28-13.65,12.52-18.12,10.11-7.22,20.73-6.33,31.36-1,.45.23.91.49,1.29.82,2.71,2.28,5.16,2.04,8.15.06C193.7,2.36,203.08-.33,213.37.03c11,.39,23.64,7.52,22.78,23.58Z"/>
    <path class="cls-1" d="M406.3,149.09c.57,46.33-36.69,88.18-86.21,88.6-48.4.41-86.49-38.05-88.42-83.4-2.32-54.32,39.26-92.9,86.82-93.38,47.35-.47,88.17,40.28,87.82,88.18ZM318.55,78.08c-39.5-.33-72.31,34.13-70.35,74.37,1.82,37.41,31.38,68.16,71.76,68.06,39-.1,68.51-32.78,69.61-68.4,1.22-39.25-30.29-74.68-71.02-74.03Z"/>
    <path class="cls-1" d="M169.73,268.93c12.41,0,24.82.08,37.24-.06,2.96-.03,4.09.92,4.08,3.85-.03,8.57.41,17.14-.24,25.71-.16,2.1-1.02,2.46-2.92,2.45-25.22-.16-50.45-.27-75.67-.3-2.61,0-3.59-.63-3.52-3.48.21-8.37.17-16.76.02-25.13-.04-2.5.77-3.14,3.17-3.12,12.62.1,25.24.05,37.85.05,0,.01,0,.02,0,.03Z"/>
    <path class="cls-1" d="M396.77,218.59c15.98,15.71,31.54,32.43,47.94,48.33,7.49,7.26,14.76,14.74,22,22.25,3.46,3.59,3.79,8.9,1.1,12.01-2.46,2.85-8.71,3.62-12.4,1.44-3.25-1.92-5.77-4.69-8.19-7.5-18.79-21.87-38-43.36-57.38-64.7-2.04-2.24-2.88-3.72.2-5.81,2.53-1.72,4.61-4.09,6.73-6.03Z"/>
    <path class="cls-1" d="M160.48,230.49c0,4.76-.06,9.51.03,14.27.04,1.81-.44,2.59-2.4,2.57-8.58-.11-17.16-.14-25.75-.1-2.68.01-3.64-1.18-3.62-3.77.07-9.1.06-18.2-.01-27.3-.01-1.8.39-2.55,2.39-2.52,8.68.11,17.37.14,26.06.03,2.64-.03,3.41.98,3.33,3.49-.15,4.44-.04,8.89-.04,13.34h.01Z"/>
    <path class="cls-1" d="M178.83,229.61c0-4.54.08-9.09-.04-13.62-.05-1.77.52-2.36,2.27-2.35,8.98.06,17.97.06,26.95.01,2.01-.01,2.75.8,2.74,2.77-.04,9.57,0,19.14,0,28.71,0,1.56-.78,2.15-2.34,2.13-8.67-.07-17.35-.1-26.02-.08-2.53,0-3.49-1.2-3.45-3.63.07-4.65.02-9.29.02-13.94-.04,0-.09,0-.13,0Z"/>
    <path class="cls-2" d="M318.55,78.08c40.73-.66,72.23,34.78,71.02,74.03-1.1,35.63-30.61,68.3-69.61,68.4-40.38.11-69.94-30.65-71.76-68.06-1.95-40.25,30.85-74.7,70.35-74.37ZM265.57,162.54c.66.28.91-.09,1.22-.35,11.69-9.64,23.36-19.29,35.09-28.88,1.77-1.45,3.66-4.33,5.84-3.18,2.06,1.09,1.71,4.35,1.7,6.85-.03,12.82-.01,25.63-.01,38.51,1.03-.03,1.71-.64,2.4-1.19,18.75-14.64,37.48-29.3,56.28-43.87,1.51-1.17,1.45-2.13.78-3.58-2.56-5.57-6.14-10.5-10.18-14.98-15.53-17.22-38.69-22.5-60.17-13.64-18.88,7.78-29.6,22.22-33.27,42.16-1.37,7.42-.89,14.77.32,22.16Z"/>
    <g>
      <g>
        <path class="cls-1" d="M31.82,413.68c-.05,0-.11,0-.16,0l-1.04-.05c-.19.04-.38.06-.58.06h-15.57c-1.66,0-3-1.34-3-3v-23.67c-.06-.97-.09-2.1-.09-3.36-.06-3.05-.12-6.41-.19-10.02-.05-2.76-.08-5.3-.09-7.57l-.9-.9s-.09-.09-.13-.14c-.05-.05-.25-.24-.25-.24-.17-.18-.33-.37-.45-.58h0s-.06-.08-.22-.21c-.16-.13-.31-.28-.44-.44-.54-.66-1.16-1.4-1.88-2.24-.72-.78-1.38-1.5-1.98-2.16l-.48-.48c-.82-.53-1.37-1.46-1.37-2.52v-.19c0-.25.03-.5.09-.74v-2.62c.06-2.5.13-5.16.19-8.08.06-2.94.09-5.62.09-7.95,0-.06,0-.12,0-.17.06-1.01.09-1.83.09-2.44v-1.03c0-.96.46-1.86,1.23-2.42l5.87-4.29c.51-.38,1.13-.58,1.77-.58h26.76c1.66,0,3,1.34,3,3v15.57c0,1.66-1.34,3-3,3h-14.31c-.01.66-.02,1.29-.03,1.89.34.3.64.61.9.93.05.06.1.13.15.19.06.07.12.14.18.22l.59.59s.07.07.1.11c.58.64,1.27,1.36,2.04,2.13.06.06.11.11.16.17.69.81,1.36,1.54,1.99,2.16.08.08.16.17.23.26.16.2.3.37.42.49.05.05.09.1.14.15.34.3.61.67.79,1.11.25.61.29,1.27.13,1.89v3.73c.06,2.99.12,6.35.19,10.02.06,3.66.12,7.02.19,10.06,0,1.29.03,2.32.09,3.11,0,.07,0,.14,0,.21v5.48h3.9c.8,0,1.57.32,2.13.89.56.57.88,1.34.87,2.14l-.19,15.57c-.02,1.64-1.36,2.96-3,2.96h-4.94Z"/>
        <path class="cls-2" d="M39.1,328.64v15.57h-17.25v.65c-.06,1.93-.09,3.7-.09,5.31l.84,1.03c.31.25.56.5.75.75.06.06.09.13.09.19.06,0,.15.09.28.28l.75.75c.62.68,1.34,1.43,2.14,2.24.75.87,1.46,1.65,2.14,2.33.25.31.47.56.65.75.12.19.22.28.28.28l-.09.09v4.38c.06,3.05.12,6.4.19,10.07.06,3.67.12,7.02.19,10.07,0,1.31.03,2.39.09,3.26v8.39c.12,0,.39.02.79.05.4.03.79.05,1.17.05h4.94l-.19,15.57h-4.94l-1.77-.09v.09h-15.57v-23.77c-.06-.93-.09-2.02-.09-3.26-.06-3.11-.13-6.46-.19-10.07-.06-3.29-.09-6.21-.09-8.76l-1.03-1.03-.75-.75c-.13-.19-.22-.28-.28-.28l-.09-.09c0-.06-.06-.15-.19-.28-.19-.25-.44-.5-.75-.75-.56-.68-1.21-1.46-1.96-2.33-.75-.81-1.43-1.55-2.05-2.24l-.75-.75v-.09l-.09-.09h-.19v-.19c.06-.19.09-.43.09-.75v-2.61c.06-2.42.12-5.1.19-8.02.06-2.92.09-5.59.09-8.02.06-1.06.09-1.93.09-2.61v-1.03l5.87-4.29h26.76M36.95,395.11h0M39.1,322.64H12.34c-1.27,0-2.51.4-3.54,1.15l-5.87,4.29c-1.55,1.13-2.46,2.93-2.46,4.85v1.03c0,.55-.03,1.31-.08,2.27,0,.11,0,.23,0,.34,0,2.32-.03,4.98-.09,7.89-.06,2.91-.12,5.57-.19,7.99,0,.05,0,.1,0,.15v2.3c-.06.35-.09.7-.09,1.05v.19c0,1.98.96,3.73,2.43,4.83l.25.25c.58.64,1.22,1.34,1.91,2.09.68.8,1.28,1.51,1.8,2.14.21.26.45.5.7.72.19.26.4.51.63.74l.09.09s.1.1.15.15c.04.05.09.09.13.14l.02.02c.01,1.96.04,4.09.09,6.38.06,3.58.12,6.92.19,10.02,0,1.28.03,2.39.09,3.39v23.58c0,3.31,2.69,6,6,6h15.57c.25,0,.5-.02.75-.05l.71.04c.11,0,.21,0,.32,0h4.94c3.29,0,5.96-2.64,6-5.93l.18-15.39c0-.08,0-.16,0-.25,0-3.31-2.68-6-6-6h-.9v-2.48c0-.14,0-.29-.02-.43-.05-.72-.08-1.67-.08-2.83,0-.04,0-.08,0-.12-.06-3.04-.12-6.39-.19-10.05-.06-3.65-.12-6.99-.19-10.03v-3.36c.2-1.1.09-2.26-.36-3.35-.33-.81-.83-1.52-1.45-2.09-.04-.05-.09-.09-.13-.14h0s-.07-.07-.2-.24c-.14-.18-.3-.35-.46-.51-.57-.56-1.18-1.23-1.83-1.99-.1-.12-.21-.23-.32-.34-.33-.33-.64-.64-.93-.94h9.18c3.31,0,6-2.69,6-6v-15.57c0-3.31-2.69-6-6-6h0Z"/>
      </g>
      <g>
        <path class="cls-1" d="M63.8,413.4c-.25,0-.5-.03-.74-.09h-9.61c-1.66,0-3-1.34-3-3v-15.57c0-1.03.52-1.93,1.3-2.47-3.95-1.94-7.61-3.73-10.98-5.36-1.53-.71-2.87-1.36-3.94-1.92-.47-.18-.88-.37-1.25-.57-.49-.2-.9-.47-1.24-.81-.89-.9-1.12-2.27-.56-3.41l2.8-5.78c.05-.11.11-.21.17-.31.02-.05.04-.11.07-.16.26-.59.59-1.29.99-2.08l2.76-5.9c.97-2.12,1.91-4.12,2.78-5.92.31-.74.59-1.39.84-1.95.07-.15.15-.3.24-.44.04-.05.07-.1.09-.14.45-1.12,1.52-1.94,2.78-1.94h2.89c1.93,0,4.12.03,6.51.09h.1c2.18,0,4.3.03,6.26.09h16.96c1.66,0,3,1.34,3,3v15.57c0,1.66-1.34,3-3,3h-9.72c1.52.74,2.99,1.45,4.4,2.13,1.53.73,2.85,1.38,3.97,1.94.37.16.69.29.96.4.08.03.16.07.24.11,1.67.84,2.02,2.07,2.02,2.96v1.12c0,.75.03,1.67.09,2.72,0,.06,0,.11,0,.17,0,2.61.03,5.51.09,8.61.06,3.17.12,6.05.19,8.66,0,0,0,2.97,0,2.97.06.24.09.49.09.74v.28c0,1.27-.8,2.39-1.97,2.82-.42.24-.9.37-1.41.37h-7.46s-7.73.09-7.74.09Z"/>
        <path class="cls-2" d="M50.19,358.57c1.93,0,4.07.03,6.43.09,2.3,0,4.41.03,6.34.09h17.06v15.57h-17.25c-1.8-.06-3.67-.09-5.59-.09l3.92,1.96c4.47,2.18,8.58,4.16,12.31,5.97,1.55.75,2.89,1.4,4.01,1.96.43.19.81.34,1.12.47.25.13.37.22.37.28v1.12c0,.81.03,1.77.09,2.89,0,2.61.03,5.5.09,8.67.06,3.17.12,6.06.19,8.67v2.89c0,.31.03.56.09.75v.28l-.37.09v.09h-7.46l-7.74.09v-.09h-10.35v-15.57h10.07v-.09l-9.23-4.47c-4.41-2.18-8.48-4.16-12.21-5.97-1.62-.75-2.95-1.4-4.01-1.96-.5-.19-.9-.37-1.21-.56-.19-.06-.31-.12-.37-.19l2.8-5.78c.12-.12.22-.31.28-.56.25-.56.56-1.21.93-1.96l2.8-5.97c.99-2.17,1.93-4.16,2.8-5.97.31-.75.59-1.4.84-1.96.25-.37.37-.59.37-.65v-.09h2.89M50.19,352.57h-2.89c-2.5,0-4.64,1.53-5.54,3.7-.12.2-.22.4-.31.6-.25.56-.53,1.2-.83,1.94-.86,1.79-1.79,3.78-2.77,5.91l-2.75,5.87c-.41.83-.75,1.53-1.02,2.14,0,.01,0,.02-.01.03-.06.11-.12.23-.18.35l-2.8,5.78c-1.1,2.28-.66,5.01,1.12,6.82.59.6,1.28,1.07,2.09,1.42.39.21.82.4,1.29.59,1.09.57,2.38,1.2,3.94,1.91,2.52,1.22,5.22,2.53,8.05,3.92-.08.38-.12.78-.12,1.19v15.57c0,3.31,2.69,6,6,6h9.29c.35.06.7.09,1.05.09.02,0,.05,0,.07,0l7.7-.09h7.42c1.04,0,2.02-.27,2.88-.73,2.1-.96,3.49-3.08,3.49-5.45v-.28c0-.35-.03-.71-.09-1.05v-2.58s0-.1,0-.15c-.06-2.6-.13-5.48-.19-8.64-.06-3.09-.09-5.96-.09-8.55,0-.11,0-.22,0-.33-.06-1-.08-1.86-.08-2.56v-1.12c0-1-.28-3.31-2.6-4.99,2.18-.9,3.71-3.05,3.71-5.55v-15.57c0-3.31-2.69-6-6-6h-16.97c-1.97-.06-4.11-.09-6.36-.09-2.4-.06-4.59-.09-6.51-.09h0Z"/>
      </g>
      <g>
        <path class="cls-1" d="M102.12,413.68c-.79,0-1.54-.31-2.11-.86-.29-.28-.51-.62-.66-.99-.04-.06-.07-.12-.1-.18l-.43-.87c-.55-.97-1.19-2.1-1.91-3.37-1.83-3.28-3.83-6.81-5.96-10.53l-5.89-10.57c-.75-1.37-1.39-2.49-1.91-3.37-.04-.07-.08-.13-.11-.2-.14-.28-.24-.42-.28-.48-.15-.2-.27-.42-.37-.64-.34-.58-.48-1.27-.39-1.95.13-.93.69-1.74,1.5-2.19l13.61-7.64c.46-.26.96-.38,1.47-.38s1.05.14,1.52.41c.58.34,1.02.85,1.26,1.45.04.06.07.13.1.17.03.06.13.24.37.6.02.03.04.06.06.1l1.26-13.99c.14-1.55,1.44-2.73,2.99-2.73h.28c.2,0,.4.02.59.06.08.02.22.04.43.04.07,0,.14,0,.21,0,.9.06,1.89.16,2.96.28l1.16.08,14.37.28c1.63.03,2.94,1.37,2.94,3v1.3c0,.95-.03,2.11-.09,3.52,0,3.16-.03,6.72-.09,10.61-.06,3.92-.12,7.5-.19,10.73v4.42c0,.26-.03.51-.09.77v9.67c0,2.62-.03,5.03-.09,7.17v3.08c0,.8-.32,1.57-.89,2.13-.56.56-1.32.87-2.11.87,0,0-9-.09-9-.09-.21.05-.43.08-.66.09,0,0-13.73.19-13.75.19ZM104.58,377.01c.82,1.52,1.7,3.1,2.62,4.74.03-1.5.06-3.16.08-4.52-.51-.03-1-.07-1.47-.1-.09,0-.18-.02-.26-.03-.27-.04-.45-.05-.54-.05-.14,0-.29,0-.43-.03Z"/>
        <path class="cls-2" d="M106.41,358.48c.31.06.65.09,1.03.09.87.06,1.83.16,2.89.28l1.3.09,14.45.28v1.31c0,.93-.03,2.08-.09,3.45,0,3.23-.03,6.78-.09,10.63-.06,3.92-.13,7.49-.19,10.72v4.47c0,.06-.03.16-.09.28v10.16c0,2.61-.03,4.97-.09,7.09v3.17l-9.7-.09v.09l-13.7.19c0-.06-.06-.19-.19-.37l-.47-.93c-.56-.99-1.21-2.14-1.96-3.45-1.8-3.23-3.79-6.74-5.97-10.53l-5.87-10.53c-.75-1.37-1.4-2.52-1.96-3.45-.19-.37-.37-.68-.56-.93-.06-.19-.13-.31-.19-.37l13.61-7.64c0,.06.06.19.19.37.12.25.31.56.56.93.5.99,1.15,2.14,1.96,3.45,1.74,3.23,3.7,6.74,5.87,10.53l1.68,2.98.93-1.77.37-.75v-3.17c.12-6.46.19-9.98.19-10.53-.13-.06-.36-.11-.7-.14-.34-.03-.58-.05-.7-.05-1.06-.06-2.02-.12-2.89-.19-.37-.06-.72-.09-1.03-.09l-.28-.09,1.4-15.48h.28M106.41,352.48h-.28c-3.1,0-5.7,2.37-5.98,5.46l-.78,8.58c-.27-.04-.53-.05-.8-.05-1.01,0-2.03.26-2.94.77l-13.61,7.64c-1.63.91-2.74,2.54-3,4.38-.18,1.29.06,2.59.67,3.71.17.36.37.71.61,1.04.02.03.03.06.05.09.07.13.14.27.22.4.51.85,1.13,1.94,1.84,3.24,0,.02.02.03.03.05l5.87,10.53s.02.04.04.06c2.13,3.71,4.12,7.23,5.93,10.47,0,.02.02.04.03.05.71,1.24,1.33,2.33,1.87,3.29l.4.8c.03.06.06.12.1.18.3.66.72,1.26,1.24,1.78,1.12,1.11,2.64,1.73,4.21,1.73.03,0,.05,0,.08,0l13.7-.19c.31,0,.62-.03.92-.08l8.64.08s.04,0,.06,0c1.58,0,3.1-.62,4.22-1.74,1.14-1.13,1.78-2.66,1.78-4.26v-3.08c.06-2.16.09-4.57.09-7.17v-9.36c.06-.36.09-.72.09-1.08v-4.42c.06-3.22.12-6.78.19-10.68.06-3.88.09-7.44.09-10.59.06-1.42.09-2.6.09-3.58v-1.31c0-3.27-2.62-5.94-5.88-6l-14.29-.28-1.02-.07c-1.09-.13-2.11-.22-3.02-.29-.13,0-.27-.01-.4-.02-.35-.06-.7-.09-1.05-.09h0Z"/>
      </g>
      <g>
        <path class="cls-1" d="M148.17,413.68c-.79,0-1.54-.31-2.11-.86-.29-.29-.51-.62-.67-.99-.04-.06-.07-.12-.1-.18l-.43-.87c-.55-.97-1.19-2.1-1.91-3.37-1.85-3.31-3.85-6.84-5.96-10.53l-5.89-10.57c-.75-1.37-1.39-2.49-1.91-3.37-.04-.07-.08-.13-.11-.2-.15-.29-.24-.43-.28-.48-.15-.2-.27-.42-.37-.65-.34-.58-.48-1.27-.38-1.95.13-.92.69-1.73,1.5-2.19l13.61-7.64c.46-.26.96-.38,1.47-.38s1.05.14,1.52.41c.58.34,1.01.85,1.26,1.45.04.06.07.13.1.18.03.06.12.24.37.6.02.03.04.06.06.09l1.26-13.99c.14-1.55,1.44-2.73,2.99-2.73h.28c.2,0,.4.02.59.06.08.02.22.03.43.03.07,0,.14,0,.21,0,.9.06,1.89.16,2.96.28l1.16.08,14.37.28c1.63.03,2.94,1.37,2.94,3v1.3c0,.94-.03,2.09-.09,3.52,0,3.16-.03,6.72-.09,10.61-.06,3.92-.13,7.5-.19,10.73v4.42c0,.26-.03.51-.09.77v9.67c0,2.62-.03,5.03-.09,7.17v3.08c0,.8-.32,1.57-.89,2.13-.56.56-1.32.87-2.11.87,0,0-9-.09-9-.09-.21.05-.43.08-.66.09,0,0-13.73.19-13.75.19ZM150.64,377.01c.82,1.52,1.7,3.1,2.62,4.74.04-1.86.06-3.37.08-4.52-.51-.03-1-.07-1.47-.1-.09,0-.17-.02-.26-.03-.28-.04-.45-.05-.54-.05-.14,0-.29-.01-.43-.03Z"/>
        <path class="cls-2" d="M152.46,358.48c.31.06.65.09,1.03.09.87.06,1.83.16,2.89.28l1.3.09,14.45.28v1.31c0,.93-.03,2.08-.09,3.45,0,3.23-.03,6.78-.09,10.63-.06,3.92-.13,7.49-.19,10.72v4.47c0,.06-.03.16-.09.28v10.16c0,2.61-.03,4.97-.09,7.09v3.17l-9.7-.09v.09l-13.7.19c0-.06-.06-.19-.19-.37l-.47-.93c-.56-.99-1.21-2.14-1.96-3.45-1.8-3.23-3.79-6.74-5.97-10.53l-5.87-10.53c-.75-1.37-1.4-2.52-1.96-3.45-.19-.37-.37-.68-.56-.93-.06-.19-.13-.31-.19-.37l13.61-7.64c0,.06.06.19.19.37.12.25.31.56.56.93.5.99,1.15,2.14,1.96,3.45,1.74,3.23,3.7,6.74,5.87,10.53l1.68,2.98.93-1.77.37-.75v-3.17c.12-6.46.19-9.98.19-10.53-.13-.06-.36-.11-.7-.14-.34-.03-.58-.05-.7-.05-1.06-.06-2.02-.12-2.89-.19-.37-.06-.71-.09-1.03-.09l-.28-.09,1.4-15.48h.28M152.46,352.48h-.28c-3.1,0-5.7,2.37-5.98,5.46l-.78,8.58c-.27-.04-.53-.05-.8-.05-1.01,0-2.03.26-2.94.77l-13.61,7.64c-1.63.91-2.74,2.53-3,4.38-.18,1.29.06,2.59.67,3.71.17.36.37.71.61,1.04.02.03.03.06.05.09.07.13.14.27.22.4.51.85,1.13,1.94,1.84,3.24,0,.02.02.03.03.05l5.87,10.53s.02.04.04.06c2.13,3.71,4.12,7.23,5.93,10.47,0,.02.02.04.03.05.71,1.24,1.33,2.33,1.87,3.29l.4.8c.03.06.06.12.1.18.3.66.72,1.26,1.24,1.78,1.12,1.11,2.64,1.73,4.21,1.73.03,0,.05,0,.08,0l13.7-.19c.31,0,.62-.03.92-.08l8.64.08s.04,0,.06,0c1.58,0,3.1-.62,4.22-1.74,1.14-1.13,1.78-2.66,1.78-4.26v-3.08c.06-2.16.09-4.57.09-7.17v-9.36c.06-.36.09-.72.09-1.08v-4.42c.06-3.22.12-6.78.19-10.68.06-3.88.09-7.44.09-10.59.06-1.42.09-2.6.09-3.58v-1.31c0-3.27-2.62-5.94-5.88-6l-14.29-.28-1.02-.07c-1.09-.13-2.11-.22-3.02-.29-.13,0-.27-.01-.4-.02-.35-.06-.7-.09-1.05-.09h0Z"/>
      </g>
      <g>
        <path class="cls-1" d="M198.98,413.68c-1.66,0-3-1.34-3-3v-23.77c0-.86-.03-1.94-.09-3.21,0-.05,0-.09,0-.14,0-2-.01-4.06-.04-6.14h-4.23c-.2,0-.4-.02-.59-.06l-.17-.04h-12.66c-1.66,0-3-1.34-3-3v-15.57c0-1.66,1.34-3,3-3h13.24c.25,0,.5.03.74.09h6.34s15.55-.28,15.57-.28c.79,0,1.54.31,2.1.86.57.56.9,1.34.9,2.14v1.3c0,.84.03,1.89.09,3.12.06,3.2.13,6.55.19,10.16.06,3.77.09,7.09.09,10.14.06,1.3.09,2.39.09,3.33v24.05c0,1.66-1.34,3-3,3h-15.57Z"/>
        <path class="cls-2" d="M214.08,358.57v1.31c0,.87.03,1.96.09,3.26.06,3.11.12,6.46.19,10.07.06,3.67.09,7.05.09,10.16.06,1.24.09,2.33.09,3.26v24.05h-15.57v-23.77c0-.93-.03-2.05-.09-3.36,0-3.04-.03-6.09-.09-9.14h-7.18l-.47-.09h-12.96v-15.57h13.24c.06.06.19.09.37.09h6.71l15.57-.28M214.08,352.57s-.07,0-.11,0l-15.52.28h-5.98c-.35-.06-.7-.09-1.05-.09h-13.24c-3.31,0-6,2.69-6,6v15.57c0,3.31,2.69,6,6,6h12.37c.35.06.7.09,1.05.09h1.26c0,1.06.01,2.1.01,3.14,0,.09,0,.19,0,.28.06,1.23.09,2.26.09,3.07v23.77c0,3.31,2.69,6,6,6h15.57c3.31,0,6-2.69,6-6v-24.05c0-.98-.03-2.1-.09-3.41,0-3.05-.03-6.45-.09-10.12-.06-3.61-.13-6.97-.19-10.09,0-.06,0-.12,0-.17-.06-1.19-.09-2.19-.09-2.97v-1.31c0-1.61-.65-3.15-1.8-4.28-1.12-1.1-2.63-1.72-4.2-1.72h0Z"/>
      </g>
      <g>
        <path class="cls-1" d="M223.09,413.31c-1.64-.02-2.96-1.36-2.96-3v-2.98c.06-2.07.09-4.27.09-6.62.06-2.42.09-4.58.09-6.53,0-.91.03-1.66.09-2.3v-33.41c0-1.66,1.34-3,3-3h15.57c1.66,0,3,1.34,3,3v28.04c1.15-.67,2.22-1.27,3.22-1.82.44-.27.83-.52,1.16-.75.17-.12.36-.21.56-.29.02,0,.04-.02.06-.02.09-.06.19-.11.29-.16v-9.71c.06-3.89.09-7.45.09-10.63v-4.75c0-.8.32-1.56.88-2.13.56-.56,1.32-.87,2.12-.87,0,0,15.59.09,15.59.09,1.65,0,2.98,1.35,2.98,3v4.75c0,3.17-.03,6.73-.09,10.58v9.39c.48.01.97.03,1.45.05h2.36c.8,0,1.58.32,2.14.9.56.57.87,1.35.86,2.16l-.28,15.57c-.03,1.64-1.36,2.95-3,2.95,0,0-2.42,0-2.46,0-.39-.02-.77-.03-1.16-.04v4.6c0,.35-.03.69-.09,1-.02.77-.33,1.51-.88,2.06-.56.56-1.32.87-2.12.87,0,0-15.59-.09-15.59-.09-1.65,0-2.98-1.35-2.98-3v-.19c0-.26.03-.53.09-.82v-.69c-.16.09-.32.18-.47.26-.18.15-.38.29-.59.39-.09.05-.19.11-.28.18-.05.04-.09.07-.14.1l-2.24,1.49s-2.23,1.46-2.27,1.48c-.15.09-.28.17-.39.24-.56.54-1.3.84-2.08.84-.01,0-15.61-.19-15.61-.19Z"/>
        <path class="cls-2" d="M250.35,358.38l15.57.09v4.75c0,3.23-.03,6.74-.09,10.53v12.4c1.49,0,2.95.03,4.38.09h2.42l-.28,15.57h-2.33c-1.43-.06-2.86-.09-4.29-.09v7.64c0,.19-.02.34-.05.47-.03.13-.05.22-.05.28v.19l-15.57-.09v-.19c0-.06.01-.15.05-.28.03-.12.05-.25.05-.37v-6.06l-3.73,2.14c-.5.31-.93.56-1.3.75l-.28.19-.09.09c-.25.13-.5.28-.75.47l-2.24,1.49-2.14,1.4c-.31.19-.56.34-.75.47l-.19.19-15.57-.19v-2.98c.06-1.99.09-4.2.09-6.62.06-2.36.09-4.54.09-6.53,0-.87.03-1.58.09-2.14v-33.56h15.57v33.28l3.64-2.14c1.49-.87,2.86-1.65,4.1-2.33.5-.31.93-.59,1.3-.84.31-.12.5-.22.56-.28l1.68-.28v-12.12c.06-3.85.09-7.4.09-10.63v-4.75M272.63,386.26h0M250.35,352.38c-1.58,0-3.11.63-4.23,1.74-.68.67-1.18,1.49-1.47,2.39-.81-2.35-3.05-4.04-5.67-4.04h-15.57c-3.31,0-6,2.69-6,6v33.27c-.06.7-.09,1.5-.09,2.44,0,1.9-.03,4.05-.09,6.37,0,.05,0,.1,0,.16,0,2.32-.03,4.48-.09,6.43,0,.06,0,.12,0,.18v2.98c0,3.29,2.64,5.96,5.93,6l15.57.19s.05,0,.07,0c1.43,0,2.8-.51,3.88-1.42.04-.03.09-.05.13-.08.07-.04.13-.08.2-.12l2.13-1.39c1.06,1.64,2.9,2.72,5,2.74l15.57.09s.02,0,.04,0c1.58,0,3.11-.63,4.23-1.74,1.03-1.03,1.65-2.39,1.76-3.83.07-.43.11-.88.11-1.36v-1.55h.62c3.27,0,5.94-2.62,6-5.89l.28-15.39c0-.09,0-.19,0-.28,0-3.31-2.68-6-6-6h-.81v-6.44c.06-3.85.09-7.41.09-10.58v-4.75c0-3.3-2.66-5.98-5.96-6l-15.57-.09s-.02,0-.04,0h0Z"/>
      </g>
    </g>
    <g>
      <g>
        <path class="cls-1" d="M299.81,413.73c-1.06,0-2.22-.03-3.43-.09h-.97c-.23.06-.47.09-.72.09h-15.57c-1.66,0-3-1.34-3-3v-22.84s0-.13-.05-.45c-.03-.16-.04-.32-.04-.48v-3.36c-.06-2.99-.12-6.35-.19-10.02-.06-3.66-.12-7.01-.19-10.06v-1.95c-.06-.23-.09-.47-.09-.72v-3.73c0-.88.39-1.72,1.07-2.29l1.73-1.46s6.11-5.55,6.16-5.6l3.7-3.23-4.22-.09h-9.63c-1.66,0-3-1.34-3-3v-15.66c0-1.66,1.34-3,3-3h9.7c.27,0,.54.04.79.11,0,0,9.03.27,9.04.27l9.7.47c.64.03,1.26.27,1.76.67l5.91,4.84c.85.53,1.43,1.46,1.43,2.52,0,.02-.47,19.37-.47,19.37-.02.85-.4,1.64-1.04,2.2l-7.64,6.62c-.15.13-.31.24-.48.34l-4.26,3.75-1.56,1.39c.05,1.99.1,4.66.15,7.97.06,3.6.12,6.95.19,10.05v3.32c0,.09,0,.17.01.24.06.24.08.44.08.69v4.5c.83.03,1.61.05,2.31.05h1.58c.8,0,1.58.32,2.14.9.56.58.87,1.35.86,2.16l-.28,15.57c-.03,1.64-1.36,2.95-3,2.95h-1.49Z"/>
        <path class="cls-2" d="M284.06,325.8l.28.09,9.32.28h.09l9.7.47,6.15,5.03h.09v.09l-.47,19.2-7.64,6.62h-.09l-4.66,4.1-2.61,2.33c.06,2.05.12,5.16.19,9.32.06,3.61.12,6.96.19,10.07v3.26c0,.37.03.68.09.93v7.46h1.96c1.24.06,2.36.09,3.36.09h1.58l-.28,15.57h-1.49c-1.06,0-2.18-.03-3.36-.09h-1.77v.09h-15.57v-22.84c0-.25-.03-.56-.09-.93v-3.36c-.06-3.04-.13-6.4-.19-10.07-.06-3.67-.13-7.02-.19-10.07v-2.61h-.09v-3.73l1.77-1.49,6.06-5.5.09-.09,7.27-6.34.09.09v-2.05l-.75-.09-9.04-.19h-9.7v-15.66h9.7M301.58,395.16h0M284.06,319.8h-9.7c-3.31,0-6,2.69-6,6v15.66c0,3.31,2.69,6,6,6h6.04l-4.02,3.65-1.69,1.42c-1.35,1.14-2.13,2.82-2.13,4.59v3.73c0,.36.03.71.09,1.06v1.55s0,.08,0,.12c.06,3.04.12,6.39.19,10.05.06,3.65.12,6.99.19,10.03v3.29c0,.32.03.64.08.96,0,.03.01.07.02.1v22.71c0,3.31,2.69,6,6,6h15.57c.36,0,.72-.03,1.06-.09h.56c1.24.06,2.42.09,3.51.09h1.49c3.27,0,5.94-2.62,6-5.89l.28-15.39c0-.09,0-.19,0-.29,0-3.31-2.68-6-6-6h-.9v-1.55c0-.35-.03-.7-.09-1.05v-3.14s0-.08,0-.12c-.06-3.1-.13-6.45-.19-10.05-.04-2.59-.08-4.8-.12-6.6l.54-.48,4.04-3.55c.23-.15.44-.31.65-.49l7.64-6.62c1.28-1.11,2.03-2.7,2.07-4.39l.47-19.2s0-.1,0-.15v-.09c0-2.18-1.16-4.08-2.89-5.13l-5.55-4.54c-1-.81-2.23-1.29-3.51-1.35l-9.7-.47c-.1,0-.19,0-.29,0h0l-8.51-.26c-.39-.08-.78-.12-1.18-.12h0Z"/>
      </g>
      <g>
        <path class="cls-1" d="M316.97,413.92c-1.66,0-3-1.34-3-3v-13.42c0-.61-.03-1.37-.09-2.33,0-.06,0-.12,0-.18v-7.46c-.06-2.68-.09-5.21-.09-7.46,0-.83-.03-1.56-.08-2.16,0-.09-.01-.18-.01-.27v-.93c0-1.25.76-2.32,1.85-2.77.07-.04.15-.08.22-.12.14-.09.3-.2.43-.26.28-.14.63-.34,1.05-.6.05-.03.25-.15.31-.18l-2.46-1.2c-.82-.4-1.41-1.15-1.61-2.04-.2-.89.02-1.82.59-2.53l7.59-9.44c.29-.69.83-1.26,1.52-1.57.44-.24.94-.37,1.44-.37.25,0,.5.03.74.09h1.12s.1,0,.14,0c1.25.06,2.68.09,4.24.09h13.89s15.55-.28,15.57-.28c.79,0,1.54.31,2.1.86.57.56.9,1.34.9,2.14v1.31c0,.89.03,1.97.09,3.21.06,3.13.13,6.49.19,10.16.06,3.77.09,7.06.09,10.05.06,1.35.09,2.44.09,3.33v24.05c0,1.66-1.34,3-3,3h-15.57c-1.66,0-3-1.34-3-3v-23.77c0-.59-.01-1.26-.04-2.01-.11.07-.22.14-.33.2l-6.4,3.31v6.42c.06.98.09,1.8.09,2.52v13.61c0,1.66-1.34,3-3,3h-15.57Z"/>
        <path class="cls-2" d="M360.32,358.52v1.31c0,.93.03,2.05.09,3.36.06,3.05.12,6.4.19,10.07.06,3.67.09,7.02.09,10.07.06,1.31.09,2.39.09,3.26v24.05h-15.57v-23.77c0-.93-.03-2.02-.09-3.26,0-3.04-.03-6.12-.09-9.23h-4.57v8.02l-8.11,4.2c.06.19.09.44.09.75v7.55c.06.93.09,1.74.09,2.42v13.61h-15.57v-13.42c0-.68-.03-1.52-.09-2.52v-7.46c-.06-2.73-.09-5.22-.09-7.46,0-.93-.03-1.74-.09-2.42v-.93h.47l-.09-.19c.06,0,.22-.09.47-.28.37-.19.81-.43,1.31-.75,1.24-.68,2.58-1.43,4.01-2.24l1.21-.65-7.64-3.73,8.02-9.98v-.19h.09l.09-.09v.09h1.86c1.3.06,2.76.09,4.38.09h13.89l15.57-.28M360.32,352.52s-.07,0-.11,0l-15.52.28h-13.84c-1.52,0-2.9-.03-4.09-.09-.1,0-.19,0-.29,0h-.81c-.35-.06-.7-.09-1.06-.09-.96,0-1.9.23-2.76.67-1.18.56-2.16,1.5-2.76,2.66l-7.37,9.17c-1.14,1.42-1.58,3.29-1.18,5.07.23,1.05.74,2,1.45,2.77-.83,1.03-1.32,2.33-1.32,3.75v.93c0,.18,0,.36.02.54.05.52.07,1.15.07,1.89,0,2.28.03,4.81.09,7.53v7.39c0,.12,0,.25.01.37.05.88.08,1.61.08,2.15v13.42c0,3.31,2.69,6,6,6h15.57c3.31,0,6-2.69,6-6v-13.61c0-.76-.03-1.61-.09-2.62v-4.5l.77-.4v20.85c0,3.31,2.69,6,6,6h15.57c3.31,0,6-2.69,6-6v-24.05c0-.92-.03-2.03-.09-3.4,0-2.99-.03-6.28-.09-10.03-.06-3.68-.13-7.04-.19-10.09,0-.06,0-.11,0-.17-.06-1.19-.09-2.22-.09-3.07v-1.31c0-1.61-.65-3.15-1.8-4.28-1.12-1.1-2.63-1.72-4.2-1.72h0Z"/>
      </g>
      <g>
        <path class="cls-1" d="M370.11,413.83c-.79,0-1.54-.31-2.1-.86-.57-.56-.9-1.34-.9-2.14v-.02c-.06-.41-.09-.84-.09-1.28v-2.81c-.06-1.12-.09-2.16-.09-3.07v-22.93c0-1.66,1.34-3,3-3h6.34c4.25.06,8.94.09,13.98.09,1.15,0,2.15,0,3.01.01v-.63h-25.2c-1.66,0-3-1.34-3-3v-15.57c0-1.66,1.34-3,3-3h21.72c5.32.06,10.3.09,14.82.09h6.81c1.55,0,2.83,1.18,2.98,2.69.07.25.11.51.11.78v1.31c0,.88.03,2,.09,3.31.06,3.25.13,6.74.19,10.53.06,3.85.12,7.36.19,10.53v3.51c0,.09,0,.17.01.24.06.24.08.45.08.69v1.4c0,.72-.03,1.52-.09,2.43v16.58c0,.31-.03.61-.09.92-.02.77-.34,1.5-.88,2.05-.56.56-1.32.87-2.12.87,0,0-15.59-.09-15.59-.09-1.65,0-2.98-1.35-2.98-3v-.19c0-.26.03-.54.09-.83v-10.05c-.84,0-1.91-.01-3.25-.01h-1.66v3.9c0,.89.03,1.83.09,2.8,0,.06,0,.12,0,.18v2.98c0,.09,0,.17.01.24.06.24.08.44.08.69v.37c0,1.64-1.31,2.97-2.95,3,0,0-15.6.28-15.62.28Z"/>
        <path class="cls-2" d="M389.78,358.62c5.41.06,10.35.09,14.82.09h6.81v.47h.09v1.3c0,.93.03,2.08.09,3.45.06,3.17.12,6.65.19,10.44.06,3.85.12,7.37.19,10.53v3.45c0,.37.03.68.09.93v1.4c0,.68-.03,1.46-.09,2.33v16.69c0,.13-.02.25-.05.37-.03.13-.05.22-.05.28v.19l-15.57-.09v-.19c0-.06.01-.15.05-.28.03-.12.05-.25.05-.37v-13.15c-.99-.06-3.08-.09-6.25-.09h-4.66v6.9c0,.93.03,1.93.09,2.98v2.98c0,.37.03.68.09.93v.37l-15.57.28v-.28c-.06-.31-.09-.65-.09-1.03v-2.89c-.06-1.12-.09-2.11-.09-2.98v-22.93h6.34c4.29.06,8.95.09,13.98.09,3.04,0,5.06.03,6.06.09l-.09-6.25v-.47h-28.15v-15.57h21.72M389.78,352.62h-21.72c-3.31,0-6,2.69-6,6v15.57c0,1.86.85,3.52,2.17,4.62-.2.6-.31,1.24-.31,1.9v22.93c0,.94.03,2,.09,3.15v2.73c0,.52.03,1.03.1,1.52.06,1.53.69,2.99,1.79,4.06,1.12,1.1,2.63,1.72,4.2,1.72.04,0,.07,0,.11,0l15.57-.28c2.28-.04,4.25-1.35,5.23-3.26,1.01,1.87,2.98,3.15,5.25,3.17l15.57.09s.02,0,.04,0c1.58,0,3.11-.63,4.23-1.74,1.03-1.02,1.65-2.38,1.75-3.82.07-.42.11-.85.11-1.27v-16.48c.06-.94.09-1.78.09-2.54v-1.4c0-.35-.03-.71-.09-1.05v-3.33s0-.08,0-.12c-.06-3.16-.12-6.67-.19-10.51-.06-3.8-.13-7.29-.19-10.46,0-.05,0-.11,0-.16-.06-1.26-.09-2.33-.09-3.18v-1.3c0-.49-.06-.96-.17-1.41-.45-2.87-2.93-5.06-5.93-5.06h-6.81c-4.48,0-9.44-.03-14.75-.09-.02,0-.05,0-.07,0h0Z"/>
      </g>
      <g>
        <path class="cls-1" d="M411.31,356.21c-.25,0-.5-.03-.74-.09h-5.97c-1.76,0-3.38-.03-4.82-.09h-15.32c-1.66,0-3-1.34-3-3v-10.61h-6.51c-.81,0-1.58-.33-2.14-.9-.56-.58-.87-1.36-.86-2.16l.19-8.67c.04-1.63,1.37-2.94,3-2.94.02,0,20.47.37,20.47.37.05,0,.11,0,.16,0l1.31.09c1.57.11,2.79,1.42,2.79,2.99v.47c0,.45-.03.96-.09,1.56v1.22s.35,0,.39,0c1.37.06,2.89.09,4.53.09h6.25c.2,0,.4.02.6.06.1.02.18.04.24.05.7.06,1.35.37,1.85.87.56.57.88,1.33.87,2.13l-.09,15.57c0,1.65-1.35,2.98-3,2.98h-.09Z"/>
        <path class="cls-2" d="M375.14,330.74l20.42.37,1.31.09v.47c0,.37-.03.84-.09,1.4v4.2c-.06.06-.09.12-.09.19h3.36c1.43.06,2.98.09,4.66.09h6.25c.31.06.5.09.56.09l-.09,15.57h-.09c-.12-.06-.28-.09-.47-.09h-6.25c-1.74,0-3.32-.03-4.75-.09h-15.38v-10.53c0-.37.03-.84.09-1.4v-1.68h-9.6l.19-8.67M375.14,324.74c-3.26,0-5.93,2.6-6,5.87l-.19,8.67c-.03,1.61.58,3.17,1.71,4.33,1.13,1.15,2.67,1.8,4.29,1.8h3.51v7.61c0,3.31,2.69,6,6,6h15.25c1.47.06,3.11.09,4.88.09h5.66c.35.06.7.09,1.05.09h.09c3.3,0,5.98-2.66,6-5.96l.09-15.57c0-1.6-.62-3.13-1.74-4.27-.96-.96-2.21-1.57-3.54-1.73-.03,0-.06-.01-.09-.02-.39-.08-.79-.12-1.18-.12h-6.25c-.63,0-1.24,0-1.83-.01v-.33c0-3.15-2.43-5.76-5.57-5.98l-1.31-.09c-.11,0-.21-.01-.32-.01l-20.42-.37s-.07,0-.11,0h0Z"/>
      </g>
      <g>
        <path class="cls-1" d="M445.88,413.73c-1.65,0-2.98-1.35-2.98-3v-1.1l-8.83,3.26-1.02.34c-.44.21-.96.4-1.61.4s-1.28-.21-1.8-.6l-10.44-7.83c-.76-.57-1.2-1.46-1.2-2.4v-.28c0-.12,0-.25.02-.37l.09-.68c.06-.72.12-1.54.18-2.49.12-2.44.32-5.14.57-8,.18-2.84.33-5.5.46-7.91.06-1,.12-1.86.18-2.6,0-.34.04-.66.09-.96.02-.81.36-1.57.96-2.12.14-.13.29-.24.44-.34-.63-.1-1.21-.4-1.67-.87-.56-.58-.87-1.36-.85-2.17l.37-15.57c.04-1.63,1.37-2.93,3-2.93.28,0,.54.04.78.09h.43c.85,0,1.88.03,3.14.1,2.72.06,5.81.15,9.18.28,3.31.06,6.38.12,9.18.19.06,0,.12,0,.19,0,.66.05,1.23.08,1.71.08l15.61.19c1.64.02,2.96,1.36,2.96,3v1.3c0,1-.03,2.19-.09,3.61,0,3.16-.03,6.72-.09,10.61-.05,1.96-.09,3.47-.12,4.62.78.31,1.41.94,1.71,1.76l5.31,14.64c.33.92.2,1.94-.36,2.75-.48.68-1.22,1.13-2.03,1.25-.24.1-.52.21-.83.35-.05.02-.1.04-.15.06-1.08.4-2.37.85-3.84,1.34-.04,2.1-.07,4.04-.07,5.82v3.26c0,.8-.32,1.56-.88,2.13-.56.56-1.32.87-2.12.87,0,0-15.59-.09-15.59-.09ZM438.29,377.72c1.57.11,2.78,1.42,2.78,2.99v.93c0,.08,0,.17-.01.25-.06.73-.12,1.58-.18,2.54l-.23,3.08,2.44-.87v-1.28c.04-2.42.09-4.96.14-7.65-2.59-.06-5.42-.15-8.42-.26l3.49.25Z"/>
        <path class="cls-2" d="M421.85,358.52c.06,0,.19.03.37.09h.84c.81,0,1.8.03,2.98.09,2.8.06,5.87.16,9.23.28,3.36.06,6.43.13,9.23.19.75.06,1.4.09,1.96.09l15.57.19v1.31c0,.99-.03,2.18-.09,3.54,0,3.23-.03,6.77-.09,10.63-.13,4.54-.19,7.24-.19,8.11l.28-.09c.5-.19.9-.34,1.21-.47.25-.06.4-.09.47-.09l5.31,14.64c-.06,0-.22.03-.47.09-.31.13-.68.28-1.12.47-1.18.44-2.61.93-4.29,1.49l-1.49.56v.93c-.06,2.55-.09,4.88-.09,6.99v3.26l-15.57-.09v-5.41l-8.58,3.17c-1.68.62-3.11,1.15-4.29,1.59l-1.12.37c-.25.13-.4.19-.47.19l-10.44-7.83v-.28l.09-.75c.06-.75.12-1.62.19-2.61.12-2.42.31-5.06.56-7.92.19-2.92.34-5.59.47-8.02.06-.99.12-1.86.19-2.61,0-.31.03-.56.09-.75v-.28l15.48,1.12v.93c-.06.75-.12,1.62-.19,2.61l-.56,7.64,7.55-2.7,1.21-.47v-3.36c.06-3.23.12-6.74.19-10.53-.62,0-1.37-.03-2.24-.09-2.8-.06-5.87-.15-9.23-.28-3.3-.06-6.34-.12-9.14-.19-1.18-.06-2.21-.09-3.08-.09-.31,0-.59-.03-.84-.09h-.28l.37-15.57M421.85,352.52c-3.26,0-5.92,2.6-6,5.86l-.37,15.57c-.03,1.44.45,2.84,1.36,3.95-.12.42-.2.85-.23,1.29-.06.36-.09.74-.1,1.13-.06.74-.12,1.59-.18,2.54,0,.02,0,.04,0,.06-.13,2.47-.28,5.12-.46,7.88-.25,2.87-.44,5.57-.57,8.03-.06.88-.11,1.66-.17,2.34l-.08.62c-.03.25-.05.5-.05.75v.28c0,1.89.89,3.67,2.4,4.8l10.44,7.83c1.04.78,2.3,1.2,3.6,1.2,1.09,0,1.99-.29,2.7-.61l.78-.26c.06-.02.12-.04.18-.06,1.18-.44,2.62-.97,4.3-1.59l1.25-.46c1.02,1.82,2.97,3.06,5.2,3.07l15.57.09s.02,0,.04,0c1.58,0,3.11-.63,4.23-1.74,1.13-1.13,1.77-2.66,1.77-4.26v-3.26c0-1.15,0-2.38.03-3.66.7-.24,1.34-.47,1.92-.69.1-.04.19-.07.29-.12.18-.08.34-.15.5-.21,1.46-.32,2.76-1.17,3.63-2.42,1.12-1.6,1.39-3.65.73-5.49l-5.31-14.64c-.32-.89-.84-1.66-1.49-2.29.02-.84.05-1.82.08-2.96,0-.02,0-.05,0-.07.06-3.88.09-7.44.09-10.59.06-1.44.09-2.64.09-3.68v-1.31c0-3.29-2.64-5.96-5.93-6l-15.57-.19s-.05,0-.07,0c-.4,0-.89-.02-1.46-.07-.12-.01-.25-.02-.37-.02-2.79-.06-5.85-.12-9.19-.19-3.31-.12-6.4-.22-9.17-.28-1.28-.07-2.33-.1-3.21-.1h-.14c-.33-.06-.69-.09-1.08-.09h0Z"/>
      </g>
      <g>
        <path class="cls-1" d="M464.44,356.86c-1.72-.06-3.29-.09-4.65-.09h-21.82c-1.66,0-3-1.34-3-3v-5.59c0-1.38-.03-2.65-.09-3.76,0-.05,0-.11,0-.16v-2.33c0-.27.03-.51.09-.8v-.78c0-.12,0-.24.02-.36.12-.97.2-2.09.26-3.33.06-1.32.13-2.51.19-3.58,0-.09.01-.18.03-.26.05-.37.06-.59.06-.68v-.47c0-.83.34-1.62.94-2.18.56-.53,1.29-.82,2.06-.82.06,0,.12,0,.18,0l15.57.93c1.58.1,2.82,1.41,2.82,3v.47c0,.19-.02.38-.05.57-.01.06-.04.23-.04.55,0,.05,0,.11,0,.16-.02.28-.03.56-.05.85h3.02c1.43,0,3.02.03,4.72.09h6.75c.8,0,1.56.32,2.13.88.56.57.88,1.33.87,2.13l-.09,15.57c0,1.65-1.35,2.98-3,2.98,0,0-6.88,0-6.91,0Z"/>
        <path class="cls-2" d="M438.54,331.68l15.57.93v.47c-.06.31-.09.68-.09,1.12-.06,1.12-.15,2.3-.28,3.54v.47h6.25c1.43,0,2.98.03,4.66.09h6.81l-.09,15.57h-6.81c-1.74-.06-3.32-.09-4.75-.09h-21.82v-5.59c0-1.43-.03-2.73-.09-3.92v-2.33c0-.06.03-.22.09-.47v-1.12c.13-1.06.22-2.24.28-3.54.06-1.31.13-2.49.19-3.54.06-.43.09-.81.09-1.12v-.47M471.45,338.29h0M438.54,325.68c-1.52,0-3,.58-4.11,1.63-1.2,1.13-1.89,2.71-1.89,4.37v.46s0,0,0,0c0,0,0,.09-.03.26-.03.17-.04.35-.05.52-.06,1.07-.13,2.27-.19,3.6-.05,1.17-.14,2.22-.24,3.12-.03.24-.04.47-.04.71v.5c-.05.33-.09.69-.09,1.08v2.33c0,.11,0,.21,0,.32.06,1.06.08,2.27.08,3.6v5.59c0,3.31,2.69,6,6,6h21.82c1.32,0,2.85.03,4.54.09.07,0,.14,0,.21,0h6.81c3.3,0,5.98-2.66,6-5.96l.09-15.39c0-.07,0-.14,0-.21,0-3.31-2.68-6-6-6h-6.7c-1.68-.06-3.24-.09-4.66-.09-.2-2.99-2.6-5.4-5.63-5.58l-15.57-.93c-.12,0-.24-.01-.36-.01h0Z"/>
      </g>
      <g>
        <path class="cls-1" d="M477.38,413.55c-1.64-.02-2.96-1.36-2.96-3v-2.98c.06-2.07.09-4.27.09-6.62.06-2.49.09-4.6.09-6.53,0-.91.03-1.67.09-2.3v-33.41c0-1.66,1.34-3,3-3h15.57c1.66,0,3,1.34,3,3v28.04c1.15-.67,2.22-1.27,3.22-1.82.44-.28.83-.52,1.16-.75.17-.12.36-.21.55-.29.02,0,.04-.02.06-.02.09-.06.19-.11.29-.16v-9.71c.06-4,.09-7.46.09-10.63v-4.75c0-.8.32-1.56.88-2.13.56-.56,1.32-.87,2.12-.87,0,0,15.59.09,15.59.09,1.65,0,2.98,1.35,2.98,3v4.75c0,3.17-.03,6.73-.09,10.58v9.39c.48.01.97.03,1.45.05h2.36c.8,0,1.58.32,2.14.9.56.57.87,1.35.86,2.16l-.28,15.57c-.03,1.64-1.36,2.95-3,2.95,0,0-2.42,0-2.46,0-.39-.02-.77-.03-1.16-.04v4.6c0,.36-.03.7-.09,1.01-.02.77-.34,1.51-.88,2.05-.56.56-1.32.87-2.12.87,0,0-15.59-.09-15.59-.09-1.65,0-2.98-1.35-2.98-3v-.19c0-.26.03-.53.09-.82v-.69c-.16.09-.31.17-.46.25-.18.15-.38.29-.6.39-.09.05-.19.11-.29.18-.04.03-.09.07-.14.1l-2.24,1.49s-2.24,1.46-2.27,1.48c-.15.09-.28.17-.39.24-.56.54-1.3.84-2.08.84-.01,0-15.6-.19-15.6-.19Z"/>
        <path class="cls-2" d="M504.63,358.62l15.57.09v4.75c0,3.23-.03,6.74-.09,10.53v12.4c1.49,0,2.95.03,4.38.09h2.42l-.28,15.57h-2.33c-1.43-.06-2.86-.09-4.29-.09v7.64c0,.19-.02.34-.05.47-.03.13-.05.22-.05.28v.19l-15.57-.09v-.19c0-.06.01-.15.05-.28.03-.12.05-.25.05-.37v-6.06l-3.73,2.14c-.5.31-.93.56-1.3.75l-.28.19-.09.09c-.25.13-.5.28-.75.47l-2.24,1.49-2.14,1.4c-.31.19-.56.34-.75.47l-.19.19-15.57-.19v-2.98c.06-1.99.09-4.2.09-6.62.06-2.36.09-4.54.09-6.53,0-.87.03-1.58.09-2.14v-33.56h15.57v33.28l3.64-2.14c1.49-.87,2.86-1.65,4.1-2.33.5-.31.93-.59,1.3-.84.31-.12.5-.22.56-.28l1.68-.28v-12.12c.06-3.85.09-7.4.09-10.63v-4.75M526.92,386.49h0M504.63,352.62c-1.58,0-3.11.63-4.23,1.74-.68.67-1.18,1.49-1.47,2.39-.81-2.35-3.05-4.04-5.67-4.04h-15.57c-3.31,0-6,2.69-6,6v33.27c-.06.7-.09,1.5-.09,2.44,0,1.9-.03,4.05-.09,6.37,0,.05,0,.1,0,.16,0,2.32-.03,4.48-.09,6.43,0,.06,0,.12,0,.19v2.98c0,3.29,2.64,5.96,5.93,6l15.57.19s.05,0,.07,0c1.43,0,2.8-.51,3.88-1.42.04-.03.09-.05.13-.08.07-.04.13-.08.2-.12l2.13-1.39c1.06,1.64,2.9,2.72,5,2.74l15.57.09s.02,0,.04,0c1.58,0,3.11-.63,4.23-1.74,1.03-1.03,1.65-2.39,1.76-3.83.07-.43.11-.88.11-1.36v-1.55h.62c3.27,0,5.94-2.62,6-5.89l.28-15.39c0-.09,0-.19,0-.28,0-3.31-2.68-6-6-6h-.81v-6.44c.06-3.85.09-7.41.09-10.58v-4.75c0-3.3-2.66-5.98-5.96-6l-15.57-.09s-.02,0-.04,0h0Z"/>
      </g>
    </g>
    <g>
      <path class="cls-2" d="M245.24,426c.65-.22,1.2-.2,1.66.04.56.24.92.61,1.08,1.11.11.25.17.63.18,1.13-.07,1.36-.21,2.83-.42,4.39-.04.35-.11.82-.19,1.4-.09.58-.13.92-.13,1.02s-.02.3-.06.61c-.04.3-.09.67-.12,1.1-.04.43-.08.77-.13,1.02-.22,1.27-.37,2.45-.44,3.56-.09.61-.23,1.79-.44,3.56-.21,1.67-.41,3.74-.61,6.21-.11,1.51-.21,2.68-.29,3.48-.09.61-.16,1.92-.21,3.94,0,.35,0,1.03-.03,2.04-.03,1.01-.03,1.74-.02,2.19-.06,1.62-.08,3.03-.05,4.23,0,.25,0,.58-.01.98-.02.4-.03.73-.05.98-.02.25-.03.4-.03.45-.09.61-.35,1.12-.79,1.53-.44.41-1.69.82-3.75,1.22-1.31.23-2.71.42-4.22.56-.35.06-1.78.35-4.29.86-1.3.28-3.52.49-6.64.61-2.47.06-3.78.07-3.93.02-1.16-.22-1.91-.84-2.24-1.84-.11-.3-.17-.9-.19-1.81.03-.81.13-1.79.31-2.96.31-1.62.68-3.19,1.09-4.71.32-1.42.69-2.61,1.12-3.58l.57-1.37c-.2-.04-.43-.07-.68-.06-.71.02-1.42-.32-2.14-1.01-1.29-1.23-2.21-2.77-2.76-4.62-.39-1.5-.44-2.76-.17-3.78.18-1.01.86-2.14,2.03-3.38,1.08-1.18,2.35-1.8,3.81-1.83.65-.02,1.49.22,2.51.7,1.53.77,2.58,1.63,3.16,2.57.37.65.56,1.47.59,2.48.02.76-.02,1.34-.11,1.74-.05.1-.1.27-.14.49-.05.23-.09.48-.13.76-.04.28-.09.49-.14.65-.53,2.99-1.18,5.45-1.94,7.38-.43,1.07-.76,1.98-.99,2.75-.7,2.39-1.07,3.83-1.1,4.34-.09.46-.18.99-.26,1.59-.14.56-.2.91-.2,1.06,0,.1.91.1,2.72,0,1.96-.1,4-.37,6.1-.83,1.1-.23,2.43-.44,3.99-.63,1.31-.18,2.28-.33,2.94-.45l1.58-.27-.05-2.12c.06-1.61.09-2.7.07-3.25.08-.81.1-2.02.06-3.63.05-2.07.1-3.2.14-3.4l.3-3.26c.06-1.46.14-2.42.23-2.88.06-1.61.22-3.31.48-5.08.04-.3.11-.82.19-1.55.08-.73.15-1.22.19-1.48.07-1.16.22-2.45.44-3.87.18-.96.33-2.05.45-3.26l.25-2.12.24-2.42c.12-1.26.28-2.07.47-2.43.19-.41.56-.72,1.11-.93ZM223.09,447.78c-1.12-.48-2-.2-2.63.82-.29.56-.43,1.17-.41,1.82.01.5.1.88.25,1.13.63,1.04,1.55,1.47,2.75,1.29.65-.12,1.13-.57,1.44-1.36.31-.79.3-1.58-.02-2.38-.32-.75-.78-1.19-1.39-1.33Z"/>
      <path class="cls-2" d="M271.79,438.89c.7-.12,1.18-.1,1.44.04.15.1.28.17.38.22.46.19.82.64,1.09,1.33.11.3.14.68.1,1.13-.04.35-.16.71-.35,1.07l-.52.54c-.3.21-.6.32-.9.32-.05,0-.1.03-.15.08s-.19.07-.41.05c-.23-.02-.37-.05-.42-.1,0-.1-.08-.15-.23-.15-1.16.03-2.14.13-2.94.3-.1,0-.68.09-1.73.27-1.01.08-2.03.35-3.08.83-.9.38-2.02.65-3.38.84-1.05.18-2.16.48-3.3.91-1,.38-1.65.7-1.94.95-1.04.93-1.64,2.16-1.8,3.67-.04.51.07.96.34,1.35l.23.3,1.14.05c1.11.07,2.42-.06,3.92-.4.35-.06,1.36-.04,3.02.04,1.66.09,2.67.17,3.03.27,1.27.32,2.27,1.08,3,2.27.47.85.83,1.95,1.06,3.3.23,1.36.4,2.84.49,4.45,0,.4-.04,1.66-.14,3.78-.15,2.32-.44,3.87-.87,4.63-.73,1.13-1.79,1.98-3.19,2.57-.7.27-1.53.41-2.48.44-1.21-.02-2.27-.22-3.19-.6-1.83-.81-2.85-2.25-3.05-4.31-.13-1.21.01-2.59.43-4.17.37-1.37,1.02-2.42,1.97-3.15.49-.41.97-.7,1.42-.87.5-.21.87-.32,1.13-.33.65-.07,1.28-.03,1.89.11l1.51.11v-.3c-.09-1.26-.29-2.23-.61-2.93-.11-.3-.21-.5-.32-.6-.1-.1-.66-.18-1.67-.26-1.36-.07-2.87,0-4.53.19-.95.12-1.99.15-3.1.08-1.11-.02-1.82-.08-2.12-.18-.66-.18-1.33-.61-2-1.27-.67-.66-1.14-1.4-1.41-2.2-.32-.85-.4-1.83-.22-2.94.08-.86.21-1.57.4-2.13.81-2.09,1.88-3.65,3.21-4.69.49-.36,1.47-.82,2.92-1.36,1.4-.54,2.82-.92,4.28-1.16.95-.12,1.73-.32,2.33-.59,1.3-.53,2.42-.86,3.38-.99l2.11-.35c.2,0,.58-.04,1.13-.1.55-.06.93-.12,1.13-.18.76-.02,1.28-.08,1.58-.19ZM263.96,465.46c-.3-.09-.61-.11-.91-.05-.6.01-1.05.23-1.34.64-.74.77-.94,1.64-.62,2.59.06.35.34.72.86,1.11.25.14.58.21.99.2.5.04.88,0,1.13-.1.95-.37,1.49-1.04,1.61-2,.07-1.31-.5-2.1-1.72-2.38Z"/>
      <path class="cls-2" d="M280.69,444.42c.2-.05.88-.1,2.04-.12,3.37-.08,5.78.57,7.23,1.94.88.84,1.61,2.03,2.2,3.58.53,1.3.75,2.8.64,4.52-.06,1.87-.96,4.08-2.71,6.64-1.6,2.41-2.68,4.7-3.23,6.88-.14.31-.31.87-.49,1.68-.1.25-.19.58-.28.99l-.14.53c-.09.56-.34,1.04-.76,1.45-.42.41-.9.65-1.46.72-.75.12-1.13.08-1.14-.12,0-.1-.05-.15-.15-.15-.3,0-.64-.31-1.01-.96-.16-.3-.24-.6-.25-.9,0-.4.17-1.21.55-2.43.32-1.22.58-2.05.77-2.51.6-2.03,1.37-3.86,2.29-5.5.43-.77.94-1.56,1.53-2.38,1.02-1.59,1.62-2.73,1.81-3.45.28-1.11.15-2.3-.39-3.54-.48-1.1-1-1.76-1.56-2-.71-.29-1.77-.41-3.18-.38-.6.01-1.06.1-1.35.26-.99.63-1.6,1.4-1.83,2.31-.09.41-.12,1.21-.09,2.42-.07,3.33-.13,5.07-.18,5.22-.19.61-.55,1.05-1.1,1.31-.2.16-.55.24-1.05.25-.71.02-1.27-.2-1.68-.64-.41-.34-.63-1.07-.66-2.18-.09-3.63-.04-5.94.13-6.96.22-1.42.84-2.72,1.87-3.9,1.03-1.28,2.24-2.14,3.64-2.58Z"/>
      <path class="cls-2" d="M307.5,440.52l1.74-.04c.91-.02,1.69.03,2.35.17,1.98.56,3.22.88,3.73.97,1.12.38,2.24.98,3.37,1.81,1.03.78,1.88,1.57,2.55,2.36.16.2.39.48.7.85.31.37.49.58.54.63.88.79,1.48,1.78,1.81,2.98.38,1.05.54,2.63.49,4.75,0,2.27-.67,4.65-2.02,7.15-.24.56-.43.99-.57,1.3-.71,1.93-1.65,3.64-2.82,5.13-.88,1.18-2.32,2.15-4.31,2.9-.75.32-1.68.44-2.79.37-1.16.08-2.19-.12-3.11-.6-.87-.38-1.51-.9-1.93-1.54-.26-.5-.4-1.05-.42-1.65.01-1.56.45-3.13,1.32-4.72.29-.46.34-.69.13-.68-.35,0-.91-.28-1.68-.87-.87-.68-1.5-1.42-1.87-2.22-.53-.94-.8-2.02-.83-3.23-.02-.81.02-1.34.11-1.59.29-.61.87-1.41,1.76-2.39.74-.77,1.32-1.27,1.74-1.48.42-.21,1.09-.33,1.99-.35,1.01-.02,1.89.13,2.66.46,1.22.58,2.13,1.59,2.72,3.03.43.95.6,2,.53,3.16.02.86-.06,1.56-.25,2.12-.28,1.02-.64,1.86-1.07,2.52-.1.1-.36.56-.8,1.38-.39.77-.84,1.58-1.38,2.45-.29.51-.5.99-.64,1.45,0,.15.08.28.24.37.05,0,.19,0,.42.03.23.02.42.03.57.02.3,0,.73-.12,1.28-.33,1.2-.48,2.02-1.06,2.45-1.72.68-1.02,1.19-1.97,1.52-2.83.43-1.07.88-2.04,1.37-2.91.62-1.32,1-2.34,1.14-3.05.14-.46.2-1.29.17-2.5s-.13-2.06-.29-2.56l-.17-.75-.7-.66c-.57-.54-1.01-1.03-1.32-1.48-.52-.69-1.32-1.4-2.39-2.13-.56-.39-1.63-.79-3.2-1.21-1.88-.46-3.34-.6-4.39-.42-1.2.23-2.18.43-2.93.6-.9.27-1.95.8-3.14,1.59-.3.26-.84.8-1.62,1.63-.88,1.03-1.63,1.53-2.23,1.49-.65.07-1.24-.12-1.75-.56-.46-.39-.68-.97-.65-1.72.04-.4.16-.75.35-1.03.19-.28.78-.94,1.77-1.97.93-.93,2-1.71,3.19-2.34,1.79-.9,3.62-1.52,5.47-1.87l1.13-.25ZM310.73,455.25c-.56-.19-1.01-.2-1.36-.04-.6.32-.89.78-.87,1.38,0,.35.09.6.25.75.41.44.9.63,1.45.57,1.01.08,1.5-.36,1.48-1.32-.01-.6-.33-1.05-.94-1.34Z"/>
      <path class="cls-2" d="M321.23,420.61l.83-.02c1.11.17,1.78.74,2.01,1.69.23,1.1.15,3.9-.25,8.4l-.11,1.89-.36.61c-.43.92-.92,1.48-1.47,1.7l-.45.16-2.95-.08c-2.42-.14-4.49-.12-6.2.07-.2,0-.98.05-2.34.13-.86.02-2.04.13-3.54.31-.75.12-1.46.16-2.11.13-.71-.03-1.14-.12-1.29-.27-.61-.34-1-.81-1.17-1.41s-.21-1.58-.15-2.94c.07-1.11.18-1.89.32-2.35.47-1.37,1.22-2.55,2.26-3.53,1.03-1.13,2.07-1.99,3.11-2.57,1.2-.58,3.31-.79,6.34-.61l2.34.02.91.28c.25.04.6.17,1.03.39.43.22.68.32.73.32l.61.36c.05,0,.1-.23.13-.68.09-.61.35-1.12.79-1.53.4-.26.72-.42.97-.48ZM315.33,426.65c-1.06-.23-2.6-.24-4.61-.04-.85.07-1.68.47-2.47,1.19-.99.88-1.62,1.78-1.9,2.69-.05.15-.02.23.08.22.35-.11,1.36-.18,3.02-.22.71.03,1.36,0,1.96-.12l2.19-.2c.66.04,1.18,0,1.58-.11l2.12.1,1.59.19-.16-.53c-.17-.8-.67-1.52-1.49-2.16-.72-.54-1.36-.87-1.91-1.01Z"/>
      <path class="cls-2" d="M352.98,439.49h.53c.35-.02.63.02.83.12.05,0,.13.02.23.07.1.05.18.07.23.07.15,0,.41.29.78.89.37.65.41,1.25.12,1.81-.09.41-.15,1.01-.18,1.82.02.66-.06,1.54-.24,2.65-.05.2-.09.61-.12,1.21-.04.61-.08,1.01-.12,1.21-.27,1.52-.42,2.38-.47,2.58-.36,1.82-.65,3.37-.87,4.63-.09.46-.23,1.09-.41,1.9l-.06.61c2.99.83,4.86,1.97,5.6,3.42.42.65.67,1.55.75,2.7.02,1.01-.13,1.92-.46,2.73-.47,1.42-1.41,2.35-2.8,2.79-.25.06-.85.1-1.81.12-1.76,0-3.23-.3-4.41-.88-.82-.38-1.46-.8-1.92-1.24-.77-.79-1.2-1.83-1.29-3.14l-.1-1.06-.45.09c-.3.06-.77.3-1.42.71-.15.11-.32.21-.52.32-.2.11-.36.21-.48.31-.12.1-.21.16-.26.16-.1.05-.4.29-.89.7-.84.73-1.68,1.25-2.53,1.57-.75.37-1.72.6-2.93.68-1.21.03-2.07-.08-2.58-.32-.31-.14-.69-.44-1.16-.88-.77-.74-1.32-1.56-1.65-2.45-.11-.35-.18-1.03-.2-2.04.02-1.11.1-2.04.23-2.8.22-1.16.48-2.15.76-2.97.24-.51.5-1.17.78-1.98l.42-1.37c.1-.15.07-.23-.08-.22-1.62-.36-2.9-1.01-3.83-1.95-.67-.64-1.15-1.79-1.44-3.44-.11-.4-.17-.98-.19-1.73-.01-.55.05-1.03.19-1.44.28-.76.79-1.53,1.53-2.3.69-.62,1.56-1.12,2.61-1.5.4-.16,1.03-.28,1.88-.35.86-.02,1.54.04,2.05.18,1.37.27,2.49,1.02,3.38,2.26.78.99,1.19,2.16,1.22,3.52.02.86-.3,2.07-.97,3.65-1.34,3.06-2.15,5.04-2.43,5.95-.28.86-.56,1.7-.85,2.52-.53,1.22-.77,2.54-.74,3.95.01.45.07.78.17.98.15.15.36.22.61.21.55-.01,1.18-.18,1.88-.5.45-.31.79-.57,1.04-.78.39-.41.89-.8,1.48-1.17.3-.16.75-.45,1.34-.86.79-.47,1.64-.82,2.54-1.04.7-.22,1.25-.38,1.65-.49.1-.05.2-.09.3-.12.1-.03.19-.05.26-.08.08-.03.16-.07.26-.12h.08c.2,0,.35-.16.44-.47.38-.92.68-2.06.9-3.42.09-.46.25-1.26.47-2.43.22-1.16.38-1.92.47-2.28.14-.36.25-1.01.33-1.97.08-.66.17-1.29.26-1.9.13-1.01.22-2.12.3-3.33,0-1.66.28-2.78.83-3.35.29-.31.67-.55,1.12-.71ZM335.21,445.51c-.86-.23-1.54-.04-2.03.58-.3.31-.41.82-.34,1.52.07.7.36,1.2.87,1.49.61.34,1.24.35,1.89.03.65-.27.96-.9.94-1.91,0-.4-.09-.7-.25-.9-.21-.4-.57-.67-1.08-.81ZM355.02,464.39c-.27-.6-.7-.99-1.31-1.18-.61-.19-1.11-.17-1.51.04-.4.16-.72.55-.95,1.16-.38.87-.19,1.62.58,2.25.67.54,1.38.62,2.12.25.8-.42,1.21-.99,1.24-1.69,0-.35-.07-.63-.17-.83Z"/>
      <path class="cls-2" d="M363.71,439.31c.3-.11.84-.17,1.62-.19s1.37.02,1.78.11c.96.23,1.86.69,2.68,1.37.82.74,1.42,1.63,1.8,2.68.16.45.28,1.3.36,2.56.03,1.36-.01,2.52-.14,3.48-.04.3-.1.71-.16,1.21-.06.51-.09.81-.09.91-.09.36-.26,1.12-.51,2.28-.25,1.17-.49,2.22-.72,3.15-.23.94-.37,1.51-.41,1.71-.42,1.57-.73,3.27-.94,5.09-.12,1.16-.11,1.77.04,1.81.1.1.68.14,1.74.11,1.21.07,1.97.1,2.27.1.3.04,1.7.05,4.2.01,2.49-.03,4.65-.1,6.46-.19l1.66-.12-.11-4.38c-.12-5.04-.13-8.61-.03-10.73.07-1.11.11-3.83.1-8.17-.03-1.36,0-2.12.1-2.27.33-.81,1.05-1.24,2.16-1.26.86.03,1.47.47,1.85,1.32.11.3.19,1.56.24,3.77.03,3.23.01,5.62-.05,7.18-.17,1.47-.17,5.37-.02,11.72.12,2.82.06,4.48-.18,4.99-.53,1.12-1.59,1.83-3.2,2.12-.4.11-2.62.21-6.64.31-4.03.1-6.27.13-6.73.09-.35,0-1.19-.02-2.5-.09-1.51-.01-2.62-.16-3.34-.45-.87-.43-1.51-1.07-1.94-1.92-.37-.75-.57-1.62-.59-2.63.04-2.32.42-4.72,1.11-7.21.36-1.62.75-3.27,1.17-4.94,0-.1-.38-.14-1.14-.12-1.01.08-1.89-.05-2.66-.39-1.53-.77-2.6-2.08-3.19-3.93-.11-.3-.2-1-.28-2.11-.03-1.06,0-1.76.1-2.12.33-.96.66-1.73,1-2.29.77-1.33,1.81-2.19,3.11-2.57ZM367,443.91c-.36-.14-.71-.21-1.06-.2-.71-.03-1.28.18-1.72.65-.34.36-.53.84-.57,1.45.02.71.23,1.28.65,1.72.51.44,1.05.65,1.6.64.45-.01.8-.07,1.05-.18.55-.32.94-.78,1.18-1.39.05-.15.06-.43.06-.83-.02-.81-.41-1.43-1.18-1.86Z"/>
      <path class="cls-2" d="M377.77,473.81c.5-.11,1.03-.15,1.58-.11.86-.02,1.69.24,2.51.77,1.02.63,1.72,1.29,2.09,1.99.47.79.75,1.95.84,3.46.03,1.31-.01,2.6-.13,3.86-.12,1.21-.18,2.12-.16,2.72.03,1.26-.43,2.13-1.37,2.6-.4.16-.72.24-.98.25-.76.02-1.37-.22-1.83-.71-.36-.39-.58-.99-.65-1.8l-.02-.83-.91.02c-.76.02-1.62-.16-2.58-.54-1.02-.38-1.78-.81-2.3-1.31-.52-.64-.86-1.29-1.03-1.94-.27-.85-.28-2.01,0-3.48.28-1.02.61-1.86,1-2.52.77-1.33,2.09-2.14,3.95-2.44ZM379.55,478.3c-.66-.34-1.24-.37-1.74-.11-.64.42-1.01,1.06-1.09,1.92,0,.4.07.7.17.9.32.55.7.84,1.16.88.2.1.49.13.87.09.38-.04.67-.1.86-.21.65-.42,1.01-.98,1.09-1.69.08-.76-.36-1.35-1.33-1.78Z"/>
      <path class="cls-2" d="M415.47,435.41c.7-.12,1.18-.1,1.44.04.15.1.28.17.38.22.46.19.82.64,1.09,1.33.11.3.14.68.1,1.13-.04.35-.16.71-.35,1.07l-.52.54c-.3.21-.6.32-.9.32-.05,0-.1.03-.15.08s-.19.07-.41.05c-.23-.02-.37-.05-.42-.1,0-.1-.08-.15-.23-.15-1.16.03-2.14.13-2.94.3-.1,0-.68.09-1.73.27-1.01.08-2.03.35-3.08.83-.9.38-2.02.65-3.38.84-1.05.18-2.16.48-3.3.91-1,.38-1.65.7-1.94.95-1.04.93-1.64,2.16-1.8,3.67-.04.51.07.96.34,1.35l.23.3,1.14.05c1.11.07,2.42-.06,3.92-.4.35-.06,1.36-.04,3.02.04,1.66.09,2.67.17,3.03.27,1.27.32,2.27,1.08,3,2.27.47.85.83,1.95,1.06,3.3.23,1.36.4,2.84.49,4.45,0,.4-.04,1.66-.14,3.78-.15,2.32-.44,3.87-.87,4.63-.73,1.13-1.79,1.98-3.19,2.57-.7.27-1.53.41-2.48.44-1.21-.02-2.27-.22-3.19-.6-1.83-.81-2.85-2.25-3.05-4.31-.13-1.21.01-2.59.43-4.17.37-1.37,1.02-2.42,1.97-3.15.49-.41.97-.7,1.42-.87.5-.21.87-.32,1.13-.33.65-.07,1.28-.03,1.89.11l1.51.11v-.3c-.09-1.26-.29-2.23-.61-2.93-.11-.3-.21-.5-.32-.6-.1-.1-.66-.18-1.67-.26-1.36-.07-2.87,0-4.53.19-.95.12-1.99.15-3.1.08-1.11-.02-1.82-.08-2.12-.18-.66-.18-1.33-.61-2-1.27-.67-.66-1.14-1.4-1.41-2.2-.32-.85-.4-1.83-.22-2.94.08-.86.21-1.57.4-2.13.81-2.09,1.88-3.65,3.21-4.69.49-.36,1.47-.82,2.92-1.36,1.4-.54,2.82-.92,4.28-1.16.95-.12,1.73-.32,2.33-.59,1.3-.53,2.42-.86,3.38-.99l2.11-.35c.2,0,.58-.04,1.13-.1.55-.06.93-.12,1.13-.18.76-.02,1.28-.08,1.58-.19ZM407.65,461.98c-.3-.09-.61-.11-.91-.05-.6.01-1.05.23-1.34.64-.74.77-.94,1.64-.62,2.59.06.35.34.72.86,1.11.25.14.58.21.99.2.5.04.88,0,1.13-.1.95-.37,1.49-1.04,1.61-2,.07-1.31-.5-2.1-1.72-2.38Z"/>
      <path class="cls-2" d="M413.77,418.37l.83-.02c1.11.17,1.78.74,2.01,1.69.23,1.1.15,3.9-.25,8.4l-.11,1.89-.36.61c-.43.92-.92,1.48-1.47,1.7l-.45.16-2.95-.08c-2.42-.14-4.49-.12-6.2.07-.2,0-.98.05-2.34.13-.86.02-2.04.13-3.54.31-.75.12-1.46.16-2.11.13-.71-.03-1.14-.12-1.29-.27-.61-.34-1-.81-1.17-1.41s-.21-1.58-.15-2.94c.07-1.11.18-1.89.32-2.35.47-1.37,1.22-2.55,2.26-3.53,1.03-1.13,2.07-1.99,3.11-2.57,1.2-.58,3.31-.79,6.34-.61l2.34.02.91.28c.25.04.6.17,1.03.39.43.22.68.32.73.32l.61.36c.05,0,.1-.23.13-.68.09-.61.35-1.12.79-1.53.4-.26.72-.42.97-.48ZM407.87,424.4c-1.06-.23-2.6-.24-4.61-.04-.85.07-1.68.47-2.47,1.19-.99.88-1.62,1.78-1.9,2.69-.05.15-.02.23.08.22.35-.11,1.36-.18,3.02-.22.71.03,1.36,0,1.96-.12l2.19-.2c.66.04,1.18,0,1.58-.11l2.12.1,1.59.19-.16-.53c-.17-.8-.67-1.52-1.49-2.16-.72-.54-1.36-.87-1.91-1.01Z"/>
    </g>
  </g>
</svg>