<?xml version="1.0" encoding="UTF-8"?>
<svg id="Layer_2" data-name="Layer 2" xmlns="http://www.w3.org/2000/svg" viewBox="0 0 851.53 770.75">
  <defs>
    <style>
      .cls-1 {
        fill: #153d59;
      }

      .cls-1, .cls-2 {
        stroke-width: 0px;
      }

      .cls-2 {
        fill: #d87c39;
      }
    </style>
  </defs>
  <g id="Layer_1-2" data-name="Layer 1">
    <g>
      <path class="cls-2" d="M356.65,770.72c-113.86,0-227.73,0-341.59,0-2.5,0-5,.07-7.49-.05-4.66-.23-7.48-2.9-7.51-7.45-.09-12.98-.09-25.97.03-38.95.04-4.92,2.83-7.45,7.94-7.51,8.16-.1,16.32-.17,24.47-.02,3.81.07,5.29-1.43,5.55-5.22,1.84-27.35,3.88-54.69,5.76-82.04,1.8-26.33,3.36-52.67,5.24-79,2.11-29.49,4.51-58.96,6.7-88.45,1.48-19.89,2.75-39.79,4.24-59.67,1.86-24.84,3.91-49.67,5.75-74.51,1.19-16.07,2.08-32.16,3.24-48.23,1.17-16.23,2.81-32.43,3.68-48.67.81-15.07,2.15-30.1,3.22-45.14.42-5.88,2.69-8.38,8.71-8.39,28.47-.07,56.93-.08,85.4-.04,5.62,0,7.9,2.13,9.2,7.71,1.44,6.2.92,12.56,1.43,18.83,1.52,18.88,2.17,37.83,3.37,56.74,1.81,28.52,3.85,57.03,5.69,85.55.88,13.77,1.5,27.56,2.25,41.33.18,3.27-.55,7.62,2.52,9.07,3.14,1.49,5.38-2.55,7.66-4.46,40.55-33.9,81.01-67.89,121.47-101.89,5.98-5.03,11.79-10.26,17.8-15.25,2.18-1.81,4.27-4.61,7.76-3.02,3.79,1.72,3.46,5.27,3.45,8.6-.05,46.44-.1,92.88-.14,139.32,0,3.33.11,6.66.2,9.98.04,1.49.07,3.26,1.65,3.8,1.3.45,2.45-.74,3.47-1.59,10.23-8.49,20.47-16.98,30.67-25.5,31.51-26.3,63.06-52.55,94.49-78.95,20.88-17.53,41.57-35.28,62.38-52.91,1.76-1.49,3.51-3.18,5.93-3.49,3.41-.43,6.2,2.8,6.25,7.2.37,38.28.6,76.56,1.1,114.84,1.28,99.03.78,198.07.97,297.11.01,7.47.92,8.38,8.25,8.38,33.29.02,66.59.02,99.88.03,8.06,0,9.64,1.52,9.77,9.43.02,1.17.11,2.34.03,3.49-.26,3.6,1.26,5.11,4.96,5.03,7.99-.17,15.98-.09,23.97-.04,5.52.03,7.82,2.31,7.85,7.88.05,11.99.03,23.97.01,35.96,0,7.71-2.4,10.16-10.05,10.16-54.93.02-109.87.02-164.8.03-60.93,0-121.86,0-182.78,0v-.03ZM225.92,695.82c27.62,0,55.24,0,82.86,0,5.62,0,6.65-.87,6.65-6.65.02-23.45-.03-46.91-.16-70.36-.04-6.42-.82-7.02-7.22-7.02-54.4-.03-108.8-.05-163.2-.1-8.23,0-8.17-.07-8.19,8.29-.05,22.62-.04,45.23-.32,67.85-.08,6.85.54,7.99,7.22,7.99,27.45,0,54.91,0,82.36,0ZM315.49,526.48s-.08,0-.11,0c0-10.47.03-20.95-.01-31.42-.03-6.54-1.1-7.63-7.38-7.64-18.95,0-37.91-.01-56.86.04-5.98.02-7.25,1.2-7.26,6.88-.06,21.12.03,42.24-.09,63.37-.03,4.68,1.72,6.43,6.5,6.38,19.46-.2,38.92-.09,58.38-.1,5.74,0,6.83-1.13,6.85-7.08.02-10.14,0-20.29,0-30.43ZM136.75,526c-.06,0-.12,0-.18,0,0,10.81.14,21.62-.07,32.42-.08,4.36,1.51,5.7,5.84,5.66,19.79-.2,39.59-.1,59.38-.1,5.93,0,6.78-.86,6.77-6.9-.04-19.61-.09-39.22-.13-58.83q-.02-9.34-9.18-10.27c-1.31-.13-2.6-.6-3.91-.6-17.46-.01-34.91.09-52.37.02-4.39-.02-6.31,1.59-6.23,6.16.19,10.81.06,21.62.06,32.43Z"/>
      <path class="cls-2" d="M127.31,150.86c-7.65,0-15.31.04-22.96-.01-5.12-.04-7.26-2.15-7.44-7.15-.05-1.33-.15-2.68,0-3.99,1.43-11.94-2.44-23.01-4.88-34.45-4.26-19.96,8.52-40.88,27.79-47.77,1.55-.55,3.14-1.46,4.7-1.44,8,.1,9.54-5.01,11.72-11.59,6.86-20.72,21.62-33.11,43.26-36.97,16.61-2.97,31.55.52,44.55,11.56,2.99,2.54,6.07,2.25,8.9-.47,10.1-9.7,22.15-15.81,35.95-17.49,19.77-2.41,39.19-1.87,55.08,12.82,7.44,6.87,11.56,15.66,12.61,25.57,2.77,26.05-11.98,46.76-31.03,59.27-9.95,6.53-20.83,10.64-32.94,11.3-7.05.39-13.98-.2-20.77-1.72-3.7-.83-5.36.18-6.91,3.3-6.29,12.68-17.05,19.73-30.53,22.29-11.71,2.22-23.22.52-33.56-5.79-5.61-3.42-10.73-3.21-16.36-.22-5.18,2.75-7.96,6.19-7.64,12.54.47,9.45-.53,10.08-10.08,10.24-3.33.06-6.66.06-9.98.08-3.16.01-6.32,0-9.48,0v.08Z"/>
      <path class="cls-2" d="M225.92,695.81c-27.45,0-54.91,0-82.36,0-6.68,0-7.31-1.14-7.22-7.99.28-22.61.27-45.23.32-67.85.02-8.37-.04-8.3,8.19-8.29,54.4.05,108.8.07,163.2.1,6.41,0,7.19.6,7.22,7.02.13,23.45.18,46.9.16,70.36,0,5.78-1.03,6.65-6.65,6.65-27.62,0-55.24,0-82.86,0Z"/>
      <path class="cls-2" d="M315.49,526.48c0,10.14.01,20.29,0,30.43-.01,5.95-1.1,7.07-6.85,7.08-19.46.02-38.92-.1-58.38.1-4.78.05-6.52-1.7-6.5-6.38.12-21.12.04-42.24.09-63.37.02-5.68,1.28-6.86,7.26-6.88,18.95-.05,37.91-.05,56.86-.04,6.28,0,7.35,1.09,7.38,7.64.05,10.47.01,20.95.01,31.42.04,0,.08,0,.11,0Z"/>
      <path class="cls-2" d="M136.75,526c0-10.81.13-21.62-.06-32.43-.08-4.57,1.84-6.18,6.23-6.16,17.46.08,34.91-.03,52.37-.02,1.3,0,2.6.46,3.91.6q9.17.94,9.18,10.27c.04,19.61.09,39.22.13,58.83.01,6.04-.85,6.9-6.77,6.9-19.79,0-39.59-.1-59.38.1-4.34.04-5.92-1.3-5.84-5.66.2-10.8.07-21.62.07-32.42.06,0,.12,0,.18,0Z"/>
      <g>
        <path class="cls-1" d="M487.8,569.96c-58.02,0-112.89-22.25-154.51-62.65-40.88-39.68-64.7-92.35-67.09-148.31-2.71-63.48,18.79-122.67,60.55-166.68,41.03-43.24,98.94-68.39,158.91-68.98.69,0,1.38-.01,2.07-.01,29.08,0,57.6,6.01,84.76,17.87,26.07,11.38,49.63,27.57,70.02,48.1,20.51,20.66,36.63,44.53,47.9,70.94,11.74,27.51,17.6,56.4,17.41,85.87.66,58.2-22.7,115.82-64.11,158.09-41.05,41.91-95.74,65.26-153.99,65.75-.64,0-1.28,0-1.92,0ZM484.71,198.31c-38.49,0-76.33,16.56-103.83,45.43-28.12,29.52-43.13,69.4-41.19,109.41,1.86,38.38,17.66,73.95,44.47,100.17,27.46,26.85,64.62,41.64,104.64,41.64h.44c38.25-.1,74.36-15.5,101.69-43.37,26.18-26.69,41.83-62.76,42.95-98.94,1.26-40.59-14.47-80.84-43.14-110.42-27.46-28.33-63.73-43.93-102.13-43.93-.77,0-1.54,0-2.31.02h-1.59Z"/>
        <path class="cls-1" d="M487.73,140.83c109.43,0,203.39,94.43,202.59,205.33,1.32,107.87-85.44,205.33-200.74,206.3-.59,0-1.19,0-1.78,0-111.85,0-199.63-89.15-204.11-194.21-5.4-126.49,91.41-216.32,202.14-217.42.63,0,1.27,0,1.9,0M486.01,180.82c-.43,0-.88,0-1.31,0-91.4,0-167.03,79.91-162.5,173.18,4.22,86.95,72.83,158.46,166.59,158.46.17,0,.32,0,.48,0,90.82-.24,159.52-76.32,162.09-159.27,2.81-90.56-69.2-172.39-162.76-172.39-.86,0-1.72,0-2.59.02M487.73,105.83v35-35h0c-.75,0-1.5,0-2.25.01-32.55.32-64.14,7.08-93.89,20.08-29.44,12.86-55.52,31.15-77.54,54.36-45.04,47.48-68.25,111.22-65.34,179.47,1.3,30.37,8.43,59.9,21.21,87.76,12.44,27.12,29.66,51.47,51.17,72.36,44.9,43.59,104.1,67.59,166.7,67.59.69,0,1.38,0,2.07,0,62.93-.53,122.01-25.75,166.34-71,22.03-22.48,39.26-48.64,51.21-77.73,12.22-29.73,18.24-60.9,17.9-92.65.18-31.83-6.15-63.01-18.81-92.7-12.14-28.46-29.5-54.16-51.58-76.4-21.95-22.11-47.33-39.54-75.44-51.81-29.39-12.83-60.26-19.34-91.76-19.34h0ZM485.72,215.82h.85c.68-.01,1.35-.02,2.03-.02,33.62,0,65.43,13.71,89.57,38.61,25.4,26.2,39.33,61.81,38.22,97.7-.99,31.85-14.82,63.64-37.96,87.23-24.02,24.5-55.71,38.03-89.24,38.12h-.39c-18.25,0-35.66-3.34-51.73-9.92-15.24-6.24-28.92-15.24-40.68-26.73-23.65-23.12-37.58-54.56-39.23-88.51-.87-18.02,1.99-35.71,8.51-52.6,6.31-16.33,15.68-31.1,27.88-43.89,11.94-12.54,25.85-22.4,41.32-29.3,15.89-7.09,32.65-10.69,49.84-10.69.34,0,.68,0,1.02,0h0Z"/>
      </g>
      <g>
        <path class="cls-1" d="M795.32,737.63c-7.49,0-14.52-1.76-20.34-5.09-9.97-5.71-17.19-13.44-23.72-20.86-38.73-43.99-81.67-91.22-135.11-148.64-3.26-3.51-10.05-10.8-8.92-21.52.76-7.1,4.79-13.25,12-18.29,2.79-1.95,5.66-4.83,8.69-7.87,1.56-1.57,3.18-3.19,4.88-4.78l24.07.15c17.55,16.83,35.16,34.45,52.19,51.48,19.73,19.73,40.13,40.13,60.71,59.61,18.3,17.31,35.86,34.98,52.27,51.59,14.29,14.46,15.99,37.08,3.85,51.5-6.71,7.96-18.14,12.72-30.58,12.72Z"/>
        <path class="cls-1" d="M644.76,523.37c37.66,36.12,74.36,74.62,112.99,111.17,17.64,16.69,34.78,33.91,51.86,51.18,8.16,8.25,9.07,20.61,2.91,27.93-3.5,4.15-10.39,6.49-17.2,6.49-4.19,0-8.34-.89-11.64-2.78-7.62-4.37-13.57-10.75-19.29-17.24-44.36-50.38-89.7-99.86-135.43-149-4.81-5.17-6.82-8.57.29-13.53,5.84-4.07,10.62-9.65,15.51-14.22M620.85,497.8c-1.93,1.8-3.65,3.53-5.32,5.21-2.25,2.26-4.8,4.82-6.31,5.87-14.38,10.04-18.48,22.28-19.38,30.79-1.98,18.65,9.68,31.18,13.51,35.29,53.34,57.31,96.17,104.43,134.78,148.28,7.18,8.15,15.86,17.43,28.16,24.48,8.46,4.85,18.5,7.41,29.04,7.41,17.54,0,33.98-7.08,43.97-18.95,9.11-10.82,13.37-24.84,11.98-39.46-1.26-13.3-7.22-25.95-16.77-35.61-16.52-16.72-34.2-34.5-52.69-52-20.41-19.31-40.71-39.62-60.35-59.26-17.1-17.1-34.78-34.78-52.47-51.75l-48.13-.3h0Z"/>
      </g>
    </g>
  </g>
</svg>